<?xml version="1.0" encoding="UTF-8"?>
<svg version="1.1" xmlns="http://www.w3.org/2000/svg" width="1119" height="685">
<path d="M0 0 C369.27 0 738.54 0 1119 0 C1119 226.05 1119 452.1 1119 685 C749.73 685 380.46 685 0 685 C0 458.95 0 232.9 0 0 Z " fill="#100F14" transform="translate(0,0)"/>
<path d="M0 0 C1.4491442 -0.00657515 2.89827841 -0.01577434 4.34739143 -0.02733406 C8.31539983 -0.05142777 12.2825353 -0.03843597 16.25053771 -0.01916653 C20.5727309 -0.00480821 24.89478528 -0.02530934 29.2169534 -0.04129237 C36.78750315 -0.06447745 44.35780053 -0.06538758 51.92836952 -0.05160046 C63.18616466 -0.03115371 74.443737 -0.0450003 85.70152262 -0.06551662 C105.80896517 -0.10098083 125.91629894 -0.10195905 146.02376151 -0.08808468 C163.62134521 -0.07598163 181.2188875 -0.07460927 198.81647301 -0.08399296 C200.5673031 -0.08489811 200.5673031 -0.08489811 202.35350349 -0.08582155 C207.0916339 -0.08827135 211.8297643 -0.09075294 216.56789466 -0.09329385 C261.01887034 -0.11686172 305.46977472 -0.10461488 349.92074453 -0.07694834 C389.41014609 -0.05261038 428.89940586 -0.06223744 468.38879585 -0.09982586 C512.75537228 -0.14196055 557.12186634 -0.16118012 601.48846257 -0.14480132 C606.21858794 -0.14312311 610.94871333 -0.1415102 615.67883873 -0.13993168 C616.84351581 -0.13952464 618.00819289 -0.1391176 619.20816321 -0.13869822 C636.79302773 -0.13298291 654.37782358 -0.14495178 671.96267509 -0.16566181 C691.959817 -0.18914324 711.95678427 -0.18786046 731.95391451 -0.15374867 C743.14452281 -0.13537069 754.33473669 -0.13624884 765.52532553 -0.16492188 C773.00213731 -0.18213507 780.47864192 -0.17385534 787.95541679 -0.14492754 C792.21434151 -0.12915806 796.47248879 -0.12429728 800.73138021 -0.1504148 C804.61235215 -0.17398228 808.49187506 -0.16486865 812.37275464 -0.13058763 C814.41274077 -0.12073056 816.45280679 -0.14489441 818.49265248 -0.17078182 C829.03617639 -0.02373685 837.90298582 2.96213963 845.94594347 10.00270111 C856.70878977 21.14052269 858.64759134 34.36541436 859.50647163 49.19534016 C859.54783241 49.88382038 859.58919319 50.57230061 859.63180733 51.28164387 C860.24241779 61.64166314 860.60814844 72.00118998 860.67901802 82.37920856 C860.68884274 83.77774803 860.70322912 85.17626431 860.72259712 86.57470417 C860.8538877 97.34004262 860.07503554 107.87043848 854.69397163 117.44534016 C854.25697945 118.25358234 853.81998726 119.06182453 853.36975288 119.89455891 C851.38147163 122.75784016 851.38147163 122.75784016 849.46627998 124.32876301 C844.79902434 128.44683267 842.91962179 131.97622026 842.52137375 138.07983875 C842.41254706 142.39979472 842.47268353 146.70754068 842.55725288 151.02737141 C842.56243971 152.9138951 842.56335795 154.80043486 842.56022835 156.68696308 C842.56011607 161.63948141 842.60322393 166.5905319 842.66003609 171.54269123 C842.74873073 179.45581663 842.79389863 187.36850304 842.79653168 195.28210735 C842.80701603 198.02784187 842.8497084 200.77172648 842.8952198 203.51707172 C843.018874 218.3737649 839.38451731 229.39312334 829.38147163 240.75784016 C821.00157806 248.68476651 812.53438783 253.8073241 800.86877632 253.96316242 C800.22445656 253.97306202 799.5801368 253.98296162 798.91629219 253.9931612 C796.79534719 254.02464445 794.67437982 254.04948118 792.55334663 254.07424641 C791.07932148 254.09482733 789.60530208 254.1158241 788.13128853 254.13721943 C784.25814672 254.19232256 780.38495269 254.2417835 776.51172066 254.29006672 C772.55679889 254.34036779 768.60195265 254.39600887 764.64709663 254.45119953 C756.89195232 254.5586372 749.13674505 254.6601139 741.38147163 254.75784016 C741.38572655 255.4110474 741.38998146 256.06425465 741.39436531 256.73725605 C741.4114032 259.73760037 741.42187175 262.73793446 741.43225288 265.73830891 C741.43906075 266.76565144 741.44586861 267.79299397 741.45288277 268.85146809 C741.49661396 285.73507323 739.752151 302.90172473 727.54553413 315.67971516 C719.52132312 322.75784016 719.52132312 322.75784016 714.38147163 322.75784016 C714.39035408 324.04886143 714.39923653 325.3398827 714.40838814 326.67002583 C714.48964995 338.86623446 714.54952152 351.06238779 714.58872032 363.25880623 C714.60955064 369.52837483 714.63778535 375.79772399 714.68322945 382.06716633 C714.72684916 388.12315927 714.75064297 394.17894179 714.76098061 400.23507977 C714.76834303 402.53983272 714.78271985 404.84457481 714.80439186 407.14923763 C714.83363964 410.38987005 714.83741865 413.62964477 714.8355732 416.87038898 C714.8499543 417.8126685 714.8643354 418.75494801 714.8791523 419.72578144 C714.80560688 431.74479936 709.78885503 441.47358378 702.06897163 450.44534016 C691.17551564 459.81877904 680.70735183 462.91488625 666.50092793 462.89206123 C665.50562587 462.89441346 664.51032382 462.89676569 663.48486111 462.8991892 C660.13513535 462.90586936 656.78544848 462.90542128 653.43571663 462.90501118 C651.01569412 462.90831039 648.59567215 462.91203608 646.17565089 462.91615266 C640.21284123 462.92512235 634.2500441 462.92939919 628.28722945 462.93167162 C621.14519166 462.93463594 614.0031637 462.94333457 606.86113107 462.9520859 C589.6008441 462.97291975 572.34055543 462.98339763 555.08025882 462.99221551 C546.91581438 462.99642271 538.75137066 463.00164454 530.58692684 463.00690004 C502.64098775 463.02478748 474.69504845 463.03978452 446.7491045 463.04722023 C444.99505094 463.04769499 443.24099739 463.04817088 441.48694383 463.04864789 C440.617093 463.04888427 439.74724216 463.04912064 438.85103222 463.04936418 C434.44394236 463.05056538 430.0368525 463.05178083 425.62976265 463.05300617 C424.75516414 463.05324632 423.88056563 463.05348647 422.97946413 463.0537339 C394.6118883 463.06162987 366.24435423 463.08506924 337.87679665 463.11756212 C307.88672651 463.15185079 277.89668082 463.17157036 247.90659076 463.17486447 C244.61525173 463.17528201 241.32391271 463.17576158 238.0325737 463.17628765 C237.22215018 463.17641084 236.41172665 463.17653403 235.57674484 463.17666096 C222.52955195 463.17899391 209.48240756 463.19465886 196.43523196 463.2151295 C183.32488524 463.2353732 170.21459685 463.24087165 157.1042374 463.23135886 C149.31422525 463.22613861 141.52440713 463.23204607 133.73442286 463.25389353 C127.91978207 463.2689697 122.10528442 463.26317625 116.29063664 463.24922302 C113.93669773 463.24683412 111.58274029 463.25123639 109.22882982 463.26305167 C106.03206534 463.27810596 102.83627877 463.26854198 99.63953876 463.25282478 C98.7231462 463.26304699 97.80675363 463.2732692 96.86259159 463.28380117 C86.21845435 463.16938562 76.97976816 457.9152452 69.24865913 450.79299641 C60.16378369 441.24178706 55.12146395 429.52303367 55.1409626 416.3419466 C55.13925375 415.6409073 55.1375449 414.939868 55.13578427 414.21758509 C55.13251739 411.89300532 55.14344619 409.56872098 55.15442085 407.24416828 C55.15498557 405.56813279 55.15466722 403.8920968 55.15353584 402.21606159 C55.15296371 397.68357829 55.16469541 393.15120156 55.17868376 388.61874294 C55.1912144 383.87552275 55.19236346 379.13229993 55.19473457 374.38906574 C55.20094249 365.41490258 55.21734399 356.44078833 55.23743355 347.46664667 C55.25981399 337.24658992 55.27079138 327.02653079 55.28082442 316.80645561 C55.30171082 295.79022319 55.33687341 274.77403476 55.38147163 253.75784016 C54.45598518 253.76894321 53.53049873 253.78004627 52.57696724 253.79148579 C43.80996461 253.89211111 35.04315888 253.96801883 26.27570915 254.01690102 C21.76936939 254.04287779 17.26351101 254.07805454 12.7574482 254.13503742 C8.40019509 254.18978702 4.04340189 254.21935008 -0.31416893 254.23222637 C-1.96781201 254.24138991 -3.62143293 254.25928218 -5.27487755 254.28649044 C-22.87247417 254.56427219 -34.99146274 249.0367016 -47.93102837 236.88284016 C-52.00048677 232.61365373 -54.9493694 228.00139504 -57.61852837 222.75784016 C-58.03360649 221.98440266 -58.44868462 221.21096516 -58.87634087 220.41409016 C-61.56052083 214.48261554 -61.92309555 208.87178482 -61.90368462 202.47268391 C-61.90098061 201.55681507 -61.8982766 200.64094624 -61.89549065 199.6973238 C-61.73304036 188.07935303 -60.17779541 176.63949119 -58.68102837 165.13284016 C-58.36799645 162.65100476 -58.05643486 160.16898356 -57.74621391 157.68679523 C-57.24757934 153.69907884 -56.74837611 149.71145879 -56.24348259 145.72453022 C-54.87741115 134.92488212 -53.57384298 124.11837547 -52.29040337 113.30862141 C-52.09233537 111.64272589 -51.89425084 109.97683233 -51.69614983 108.31094074 C-50.91879217 101.77091691 -50.14234993 95.23078533 -49.3680706 88.69039631 C-48.14590267 78.37607448 -46.90020695 68.06494181 -45.61852837 57.75784016 C-45.48880009 56.70927908 -45.48880009 56.70927908 -45.35645103 55.63953495 C-44.77371202 50.93941945 -44.16835862 46.24274592 -43.55212212 41.54690266 C-43.40519417 40.37056767 -43.25826622 39.19423267 -43.10688591 37.98225117 C-41.40829206 25.36941157 -36.98780585 14.69190032 -26.61852837 6.75784016 C-17.80742783 1.09424043 -10.33554731 -0.10786843 0 0 Z " fill="#151012" transform="translate(157.61852836608887,116.24215984344482)"/>
<path d="M0 0 C1.4491442 -0.00657515 2.89827841 -0.01577434 4.34739143 -0.02733406 C8.31539983 -0.05142777 12.2825353 -0.03843597 16.25053771 -0.01916653 C20.5727309 -0.00480821 24.89478528 -0.02530934 29.2169534 -0.04129237 C36.78750315 -0.06447745 44.35780053 -0.06538758 51.92836952 -0.05160046 C63.18616466 -0.03115371 74.443737 -0.0450003 85.70152262 -0.06551662 C105.80896517 -0.10098083 125.91629894 -0.10195905 146.02376151 -0.08808468 C163.62134521 -0.07598163 181.2188875 -0.07460927 198.81647301 -0.08399296 C200.5673031 -0.08489811 200.5673031 -0.08489811 202.35350349 -0.08582155 C207.0916339 -0.08827135 211.8297643 -0.09075294 216.56789466 -0.09329385 C261.01887034 -0.11686172 305.46977472 -0.10461488 349.92074453 -0.07694834 C389.41014609 -0.05261038 428.89940586 -0.06223744 468.38879585 -0.09982586 C512.75537228 -0.14196055 557.12186634 -0.16118012 601.48846257 -0.14480132 C606.21858794 -0.14312311 610.94871333 -0.1415102 615.67883873 -0.13993168 C616.84351581 -0.13952464 618.00819289 -0.1391176 619.20816321 -0.13869822 C636.79302773 -0.13298291 654.37782358 -0.14495178 671.96267509 -0.16566181 C691.959817 -0.18914324 711.95678427 -0.18786046 731.95391451 -0.15374867 C743.14452281 -0.13537069 754.33473669 -0.13624884 765.52532553 -0.16492188 C773.00213731 -0.18213507 780.47864192 -0.17385534 787.95541679 -0.14492754 C792.21434151 -0.12915806 796.47248879 -0.12429728 800.73138021 -0.1504148 C804.61235215 -0.17398228 808.49187506 -0.16486865 812.37275464 -0.13058763 C814.41274077 -0.12073056 816.45280679 -0.14489441 818.49265248 -0.17078182 C829.03617639 -0.02373685 837.90298582 2.96213963 845.94594347 10.00270111 C856.70878977 21.14052269 858.64759134 34.36541436 859.50647163 49.19534016 C859.54783241 49.88382038 859.58919319 50.57230061 859.63180733 51.28164387 C860.24241779 61.64166314 860.60814844 72.00118998 860.67901802 82.37920856 C860.68884274 83.77774803 860.70322912 85.17626431 860.72259712 86.57470417 C860.8538877 97.34004262 860.07503554 107.87043848 854.69397163 117.44534016 C854.25697945 118.25358234 853.81998726 119.06182453 853.36975288 119.89455891 C851.38147163 122.75784016 851.38147163 122.75784016 849.46627998 124.32876301 C844.79902434 128.44683267 842.91962179 131.97622026 842.52137375 138.07983875 C842.41254706 142.39979472 842.47268353 146.70754068 842.55725288 151.02737141 C842.56243971 152.9138951 842.56335795 154.80043486 842.56022835 156.68696308 C842.56011607 161.63948141 842.60322393 166.5905319 842.66003609 171.54269123 C842.74873073 179.45581663 842.79389863 187.36850304 842.79653168 195.28210735 C842.80701603 198.02784187 842.8497084 200.77172648 842.8952198 203.51707172 C843.018874 218.3737649 839.38451731 229.39312334 829.38147163 240.75784016 C821.00157806 248.68476651 812.53438783 253.8073241 800.86877632 253.96316242 C800.22445656 253.97306202 799.5801368 253.98296162 798.91629219 253.9931612 C796.79534719 254.02464445 794.67437982 254.04948118 792.55334663 254.07424641 C791.07932148 254.09482733 789.60530208 254.1158241 788.13128853 254.13721943 C784.25814672 254.19232256 780.38495269 254.2417835 776.51172066 254.29006672 C772.55679889 254.34036779 768.60195265 254.39600887 764.64709663 254.45119953 C756.89195232 254.5586372 749.13674505 254.6601139 741.38147163 254.75784016 C741.38572655 255.4110474 741.38998146 256.06425465 741.39436531 256.73725605 C741.4114032 259.73760037 741.42187175 262.73793446 741.43225288 265.73830891 C741.43906075 266.76565144 741.44586861 267.79299397 741.45288277 268.85146809 C741.49661396 285.73507323 739.752151 302.90172473 727.54553413 315.67971516 C719.52132312 322.75784016 719.52132312 322.75784016 714.38147163 322.75784016 C714.39035408 324.04886143 714.39923653 325.3398827 714.40838814 326.67002583 C714.48964995 338.86623446 714.54952152 351.06238779 714.58872032 363.25880623 C714.60955064 369.52837483 714.63778535 375.79772399 714.68322945 382.06716633 C714.72684916 388.12315927 714.75064297 394.17894179 714.76098061 400.23507977 C714.76834303 402.53983272 714.78271985 404.84457481 714.80439186 407.14923763 C714.83363964 410.38987005 714.83741865 413.62964477 714.8355732 416.87038898 C714.8499543 417.8126685 714.8643354 418.75494801 714.8791523 419.72578144 C714.80560688 431.74479936 709.78885503 441.47358378 702.06897163 450.44534016 C691.17551564 459.81877904 680.70735183 462.91488625 666.50092793 462.89206123 C665.50562587 462.89441346 664.51032382 462.89676569 663.48486111 462.8991892 C660.13513535 462.90586936 656.78544848 462.90542128 653.43571663 462.90501118 C651.01569412 462.90831039 648.59567215 462.91203608 646.17565089 462.91615266 C640.21284123 462.92512235 634.2500441 462.92939919 628.28722945 462.93167162 C621.14519166 462.93463594 614.0031637 462.94333457 606.86113107 462.9520859 C589.6008441 462.97291975 572.34055543 462.98339763 555.08025882 462.99221551 C546.91581438 462.99642271 538.75137066 463.00164454 530.58692684 463.00690004 C502.64098775 463.02478748 474.69504845 463.03978452 446.7491045 463.04722023 C444.99505094 463.04769499 443.24099739 463.04817088 441.48694383 463.04864789 C440.617093 463.04888427 439.74724216 463.04912064 438.85103222 463.04936418 C434.44394236 463.05056538 430.0368525 463.05178083 425.62976265 463.05300617 C424.75516414 463.05324632 423.88056563 463.05348647 422.97946413 463.0537339 C394.6118883 463.06162987 366.24435423 463.08506924 337.87679665 463.11756212 C307.88672651 463.15185079 277.89668082 463.17157036 247.90659076 463.17486447 C244.61525173 463.17528201 241.32391271 463.17576158 238.0325737 463.17628765 C237.22215018 463.17641084 236.41172665 463.17653403 235.57674484 463.17666096 C222.52955195 463.17899391 209.48240756 463.19465886 196.43523196 463.2151295 C183.32488524 463.2353732 170.21459685 463.24087165 157.1042374 463.23135886 C149.31422525 463.22613861 141.52440713 463.23204607 133.73442286 463.25389353 C127.91978207 463.2689697 122.10528442 463.26317625 116.29063664 463.24922302 C113.93669773 463.24683412 111.58274029 463.25123639 109.22882982 463.26305167 C106.03206534 463.27810596 102.83627877 463.26854198 99.63953876 463.25282478 C98.7231462 463.26304699 97.80675363 463.2732692 96.86259159 463.28380117 C86.21845435 463.16938562 76.97976816 457.9152452 69.24865913 450.79299641 C60.16378369 441.24178706 55.12146395 429.52303367 55.1409626 416.3419466 C55.13925375 415.6409073 55.1375449 414.939868 55.13578427 414.21758509 C55.13251739 411.89300532 55.14344619 409.56872098 55.15442085 407.24416828 C55.15498557 405.56813279 55.15466722 403.8920968 55.15353584 402.21606159 C55.15296371 397.68357829 55.16469541 393.15120156 55.17868376 388.61874294 C55.1912144 383.87552275 55.19236346 379.13229993 55.19473457 374.38906574 C55.20094249 365.41490258 55.21734399 356.44078833 55.23743355 347.46664667 C55.25981399 337.24658992 55.27079138 327.02653079 55.28082442 316.80645561 C55.30171082 295.79022319 55.33687341 274.77403476 55.38147163 253.75784016 C54.45598518 253.76894321 53.53049873 253.78004627 52.57696724 253.79148579 C43.80996461 253.89211111 35.04315888 253.96801883 26.27570915 254.01690102 C21.76936939 254.04287779 17.26351101 254.07805454 12.7574482 254.13503742 C8.40019509 254.18978702 4.04340189 254.21935008 -0.31416893 254.23222637 C-1.96781201 254.24138991 -3.62143293 254.25928218 -5.27487755 254.28649044 C-22.87247417 254.56427219 -34.99146274 249.0367016 -47.93102837 236.88284016 C-52.00048677 232.61365373 -54.9493694 228.00139504 -57.61852837 222.75784016 C-58.03360649 221.98440266 -58.44868462 221.21096516 -58.87634087 220.41409016 C-61.56052083 214.48261554 -61.92309555 208.87178482 -61.90368462 202.47268391 C-61.90098061 201.55681507 -61.8982766 200.64094624 -61.89549065 199.6973238 C-61.73304036 188.07935303 -60.17779541 176.63949119 -58.68102837 165.13284016 C-58.36799645 162.65100476 -58.05643486 160.16898356 -57.74621391 157.68679523 C-57.24757934 153.69907884 -56.74837611 149.71145879 -56.24348259 145.72453022 C-54.87741115 134.92488212 -53.57384298 124.11837547 -52.29040337 113.30862141 C-52.09233537 111.64272589 -51.89425084 109.97683233 -51.69614983 108.31094074 C-50.91879217 101.77091691 -50.14234993 95.23078533 -49.3680706 88.69039631 C-48.14590267 78.37607448 -46.90020695 68.06494181 -45.61852837 57.75784016 C-45.48880009 56.70927908 -45.48880009 56.70927908 -45.35645103 55.63953495 C-44.77371202 50.93941945 -44.16835862 46.24274592 -43.55212212 41.54690266 C-43.40519417 40.37056767 -43.25826622 39.19423267 -43.10688591 37.98225117 C-41.40829206 25.36941157 -36.98780585 14.69190032 -26.61852837 6.75784016 C-17.80742783 1.09424043 -10.33554731 -0.10786843 0 0 Z M-19.49352837 27.75784016 C-22.77571835 32.8999378 -22.92989955 38.83092378 -23.61852837 44.75784016 C-23.8378875 46.26782382 -24.06350571 47.7769072 -24.29430962 49.28518391 C-25.789751 59.08063836 -26.98722101 68.88615034 -28.00524712 78.74221516 C-29.38145331 91.81020887 -30.92897531 104.85191699 -32.55184746 117.89132404 C-33.00771482 121.55949241 -33.4592282 125.22817646 -33.90978813 128.89700031 C-35.18588715 139.27464149 -36.46751628 149.65123119 -37.81262016 160.02018452 C-38.29027045 163.70778176 -38.75976618 167.39639533 -39.22845268 171.08514118 C-39.44175197 172.74406279 -39.6592699 174.40244919 -39.88165092 176.0601778 C-41.04452477 184.7300534 -41.81136884 193.28101696 -41.87243462 202.03518391 C-41.88145302 202.82395924 -41.89047142 203.61273457 -41.89976311 204.42541218 C-41.84794727 213.1485115 -38.73053124 218.6944161 -32.93102837 225.07034016 C-25.28040295 232.24189415 -17.07111357 234.90706665 -6.80822563 234.89968586 C-6.02563377 234.90316029 -5.24304192 234.90663471 -4.43673515 234.91021442 C-2.74035219 234.91755556 -1.04395973 234.92290968 0.6524353 234.92650509 C3.33840245 234.93368378 6.02418833 234.94935978 8.71010017 234.96784687 C16.34573103 235.02025823 23.98126034 235.06830949 31.61706734 235.08376789 C36.29029101 235.09384836 40.96305492 235.12317026 45.63609695 235.1650877 C47.41543349 235.17739755 49.19483493 235.18251898 50.97421265 235.18028927 C53.46389956 235.17793656 55.95226595 235.20009745 58.44177437 235.22781086 C59.17492363 235.22120945 59.90807289 235.21460804 60.6634388 235.20780659 C64.12322684 235.2709958 66.21865411 235.65809825 69.19020271 237.47846699 C73.70058937 242.17020255 74.75643861 245.55552499 74.76001167 252.06284809 C74.7645418 252.78834801 74.76907193 253.51384793 74.77373934 254.26133269 C74.78534675 256.68719134 74.77572321 259.11249681 74.76623726 261.53835773 C74.77034321 263.279791 74.77580423 265.02122152 74.78251839 266.76264668 C74.79424146 270.51075601 74.79672836 274.25871809 74.79216194 278.00684261 C74.78535177 283.93658808 74.80122183 289.8661399 74.82055855 295.7958498 C74.85842275 308.38733614 74.87121139 320.97880562 74.88147163 333.57034016 C74.8925468 347.15381618 74.90793093 360.73720302 74.9521842 374.32061785 C74.97052049 380.21179083 74.97443973 386.10274246 74.96724892 391.99393713 C74.96572427 395.66433434 74.97652879 399.33462141 74.99062729 403.00498867 C74.99462125 404.70287631 74.99351979 406.40078503 74.98685455 408.09866428 C74.97843216 410.42333759 74.9885093 412.74725314 75.00293159 415.07188129 C75.0036441 416.37064607 75.00435661 417.66941084 75.00509071 419.00753212 C75.64538438 425.38750078 77.72740649 430.68288605 82.00647163 435.50784016 C82.61748726 436.22455891 83.22850288 436.94127766 83.85803413 437.67971516 C90.42262555 443.08584927 97.18351252 444.34737657 105.48780918 444.25841141 C106.4710778 444.26392557 107.45434643 444.26943974 108.46741107 444.275121 C111.75839318 444.2887037 115.04861841 444.27382498 118.33958626 444.2590456 C120.72436481 444.26293889 123.10914105 444.26857955 125.4939118 444.2758165 C130.67690392 444.28750179 135.85974089 444.2867714 141.04272652 444.27503681 C148.75009923 444.25763479 156.45733771 444.26316076 164.16471742 444.27320372 C177.93109213 444.29039004 191.69738717 444.28485835 205.46376023 444.26984654 C217.51157425 444.25679347 229.55936065 444.25159904 241.60718155 444.2541647 C242.80603935 444.25440532 242.80603935 444.25440532 244.0291165 444.2546508 C247.27351782 444.25531439 250.51791913 444.25601681 253.76232043 444.25677614 C284.19687218 444.26380005 314.63137528 444.24830961 345.06591464 444.22215268 C372.10169827 444.1990399 399.13742841 444.19364865 426.17321968 444.20388508 C433.0957937 444.20648712 440.01836772 444.20907214 446.94094181 444.211483 C447.79320758 444.21178045 448.64547335 444.2120779 449.52356536 444.21238436 C472.11756956 444.22000058 494.71156937 444.21358582 517.30557162 444.20278698 C519.73697425 444.20163918 522.16837689 444.200496 524.59977953 444.19936016 C526.21269182 444.19860491 527.82560411 444.19783926 529.43851639 444.19706315 C541.4776872 444.19140621 553.51684416 444.19273386 565.55601501 444.19729137 C579.24677023 444.20240046 592.93747366 444.19654065 606.62821596 444.17639708 C614.28912861 444.16541513 621.94993945 444.16261345 629.61085519 444.17168561 C635.33107544 444.17752286 641.05118284 444.16766898 646.77137978 444.15168596 C649.08553662 444.14763815 651.39970894 444.14864689 653.71386003 444.15520483 C656.8592076 444.1633558 660.00398201 444.15304119 663.14929295 444.13815689 C664.04776185 444.14489454 664.94623075 444.15163219 665.87192598 444.15857401 C673.41286597 444.08956251 680.28852873 442.74199221 686.69397163 438.63284016 C692.21502312 432.72659903 695.50001811 426.26076749 695.51277351 418.13444233 C695.51678169 417.21061253 695.52078987 416.28678272 695.52491951 415.33495808 C695.52412643 413.82544071 695.52412643 413.82544071 695.52331734 412.28542805 C695.52679176 411.21998264 695.53026619 410.15453724 695.5338459 409.05680561 C695.54119708 406.74327396 695.54654586 404.42973527 695.55013657 402.11619473 C695.55730141 398.4557049 695.57296721 394.79534916 695.59147835 391.13490009 C695.64395491 380.72741218 695.69195088 370.31999863 695.70739937 359.91238117 C695.71746781 353.54692771 695.74676093 347.18181286 695.78871918 340.81649303 C695.80104728 338.38961501 695.80614715 335.96268922 695.80392075 333.53578091 C695.80157385 330.14336696 695.82368804 326.75192905 695.85144234 323.3596468 C695.84484093 322.35532612 695.83823952 321.35100544 695.83143806 320.3162508 C695.8897694 315.9808147 695.96327609 313.45094461 698.2393055 309.67872334 C700.79122503 307.39041375 703.0174258 306.47900579 706.25647163 305.38284016 C713.00388599 302.76615996 716.42719 299.57334239 719.69397163 293.19534016 C721.20561626 287.83587285 721.52355033 282.59070237 721.55725288 277.05080891 C721.58045383 275.56186252 721.60457128 274.07293018 721.62951851 272.58401203 C721.66452305 270.26710304 721.69394043 267.95071319 721.70739937 265.63357258 C721.84128779 246.298024 721.84128779 246.298024 728.81897163 239.32034016 C733.55424543 236.43297809 737.2357885 235.50780613 742.78894234 235.48659992 C744.70166687 235.47132 744.70166687 235.47132 746.6530323 235.45573139 C747.32963213 235.4547904 748.00623196 235.45384941 748.70333481 235.45287991 C750.83583047 235.44919705 752.96786895 235.43241762 755.10026741 235.41212177 C761.16063078 235.35690147 767.22106111 235.32609893 773.28161812 235.30154133 C776.99634857 235.28558635 780.71075446 235.25528452 784.42531586 235.21677685 C785.83374946 235.20519561 787.24224129 235.1991971 788.6507225 235.19909573 C799.46605557 235.19803518 807.37246783 234.42832596 815.55334663 226.85940266 C821.87360301 219.59380879 823.53778353 211.76153979 823.47570992 202.42849445 C823.47292398 200.69222245 823.47025402 198.95595026 823.46768379 197.21967793 C823.4646336 196.3013386 823.4615834 195.38299927 823.45844078 194.43683147 C823.44708149 189.56527982 823.46760024 184.69382065 823.48303413 179.82229328 C823.5013242 173.6268887 823.51000288 167.43198279 823.48108101 161.23659992 C823.4585266 156.22603373 823.46999129 151.21654984 823.50408745 146.20606136 C823.51085013 144.29995572 823.50519467 142.393763 823.48673058 140.48773479 C823.35123245 125.53790212 823.35123245 125.53790212 825.92346382 121.09356403 C827.65590869 119.36019131 829.34228936 118.09694342 831.38147163 116.75784016 C833.49074483 113.9982333 833.49074483 113.9982333 835.13147163 111.25784016 C835.68319038 110.38127766 836.23490913 109.50471516 836.80334663 108.60159016 C841.0138096 101.01441927 841.86680608 95.73608477 841.75647163 87.07034016 C841.74777046 85.92073811 841.73906929 84.77113605 841.73010445 83.58669758 C841.57636599 74.02781985 841.03677454 64.49922164 840.31341743 54.96789265 C840.19303039 53.38151766 840.07735585 51.79477735 839.96661568 50.20769978 C839.05056702 36.35047342 839.05056702 36.35047342 831.56897163 24.94534016 C823.53808686 19.43394865 817.17507542 19.32750785 807.58006573 19.37473011 C806.15881909 19.37099189 804.73757541 19.36594176 803.31633756 19.35970128 C799.40271487 19.34634228 795.48930563 19.35168296 791.57567725 19.36003477 C787.32101425 19.36583283 783.06639266 19.35429861 778.81174082 19.34497309 C771.35217966 19.33104456 763.89267916 19.32833174 756.43310738 19.33293247 C745.34055456 19.33975616 734.24806329 19.32951775 723.15551902 19.31597491 C702.19357649 19.29104123 681.23165939 19.28654702 660.26970441 19.28844088 C644.08572389 19.28981291 627.90175222 19.28600142 611.71777344 19.27851582 C609.39424655 19.27746549 607.07071967 19.27641787 604.74719278 19.27537295 C603.5938412 19.27485361 602.44048961 19.27433426 601.25218798 19.27379918 C599.51903165 19.27301897 599.51903165 19.27301897 597.75086206 19.272223 C596.59352039 19.271699 595.43617873 19.27117501 594.2437661 19.27063514 C561.68429868 19.25604799 529.12483451 19.2477711 496.56536388 19.25238514 C495.33745373 19.25255709 494.10954357 19.25272905 492.84442402 19.25290621 C486.62060759 19.25379513 480.39679118 19.25473994 474.17297477 19.25570422 C472.93686081 19.25589526 471.70074684 19.25608629 470.42717488 19.25628311 C467.92745173 19.2566702 465.42772859 19.25706053 462.92800544 19.25745409 C424.02355387 19.26342546 385.11916175 19.24798132 346.21472359 19.21584797 C302.52542177 19.17979331 258.83615767 19.16043524 215.14684004 19.16538668 C210.49088856 19.16585667 205.83493708 19.16626692 201.1789856 19.16663837 C200.03253558 19.16674076 198.88608557 19.16684315 197.70489465 19.16694864 C180.37856963 19.16814477 163.05228528 19.15615934 145.72597122 19.13749409 C126.02794144 19.11628437 106.32999712 19.11237935 86.63196356 19.13179368 C75.60237185 19.14214129 64.5729884 19.13859543 53.5434154 19.11526282 C46.18143191 19.10106639 38.81960309 19.10495242 31.45763014 19.12370859 C27.25937313 19.13389144 23.06152248 19.13610371 18.86329032 19.1163879 C15.0444657 19.09861511 11.22639061 19.10382435 7.40760381 19.1274163 C5.38615291 19.13397003 3.36466799 19.11598149 1.34329543 19.09701645 C-7.75141076 19.18755575 -13.37242303 20.95464561 -19.49352837 27.75784016 Z " fill="#74321D" transform="translate(157.61852836608887,116.24215984344482)"/>
<path d="M0 0 C14.85 0 29.7 0 45 0 C46 5 46 5 44.10058594 8.47070312 C40.99467234 14.19611426 41.39700685 20.09338248 41.390625 26.46875 C41.37408875 27.74480103 41.35755249 29.02085205 41.34051514 30.33557129 C41.30033991 33.70255434 41.27690192 37.06878536 41.26177979 40.43591309 C41.24211343 43.88190719 41.20036744 47.32763198 41.16015625 50.7734375 C41.08307754 57.51579587 41.04246234 64.2569802 41 71 C54.86 71 68.72 71 83 71 C82.92578224 63.63452732 82.84274863 56.27022001 82.73754883 48.90527344 C82.70442081 46.40305749 82.67635167 43.90076899 82.65356445 41.3984375 C82.61979548 37.78874981 82.56746726 34.17971976 82.51171875 30.5703125 C82.50532883 29.46261505 82.4989389 28.3549176 82.49235535 27.21365356 C82.34319751 19.22348356 81.51482493 11.77223739 77 5 C77.375 2.3125 77.375 2.3125 78 0 C84.22964615 -0.02529951 90.45927912 -0.04284549 96.68896484 -0.05493164 C98.80941259 -0.05996872 100.92985685 -0.06679859 103.05029297 -0.07543945 C106.09343322 -0.08753234 109.13652766 -0.09323447 112.1796875 -0.09765625 C113.13181122 -0.10281754 114.08393494 -0.10797882 115.06491089 -0.11329651 C115.94567291 -0.11337204 116.82643494 -0.11344757 117.73388672 -0.11352539 C118.89970779 -0.11685631 118.89970779 -0.11685631 120.08908081 -0.12025452 C122 0 122 0 124 1 C123.62235695 4.24773023 123.29271459 6.55398895 121.48126125 9.31411171 C119.69754507 12.54842462 119.62044747 14.60801482 119.61231995 18.28671265 C119.60241531 19.55400711 119.59251068 20.82130157 119.58230591 22.1269989 C119.5865437 23.52395727 119.59110153 24.9209147 119.59594727 26.31787109 C119.59024249 27.79492204 119.5832778 29.27196858 119.57514954 30.74900818 C119.55721305 34.75531631 119.5583876 38.76140546 119.56409192 42.76774168 C119.56718362 46.11508593 119.56109141 49.4623881 119.55505317 52.80972636 C119.54100744 60.70879851 119.54256912 68.60776252 119.55395508 76.50683594 C119.56543174 84.64860297 119.55136848 92.79004042 119.5245586 100.93176401 C119.50238515 107.92811823 119.49576806 114.92436913 119.50163502 121.92075598 C119.50500244 126.09662811 119.50260413 130.27228907 119.48538399 134.44813156 C119.46989099 138.37662149 119.47389609 142.30462432 119.49268913 146.23309517 C119.4963688 147.67178442 119.49328465 149.11050995 119.48280334 150.54916573 C119.43103549 158.24460816 119.45106322 163.66534622 124 170 C124.3125 172.875 124.3125 172.875 124 175 C123 176 123 176 121.17137146 176.12025452 C120.37417191 176.11803391 119.57697235 176.11581329 118.75561523 176.11352539 C117.40432777 176.11341209 117.40432777 176.11341209 116.02574158 176.11329651 C115.04658279 176.10813522 114.06742401 176.10297394 113.05859375 176.09765625 C112.06118668 176.0962413 111.0637796 176.09482635 110.03614807 176.09336853 C106.83656876 176.08775114 103.63705831 176.07519571 100.4375 176.0625 C98.27408955 176.05748724 96.11067801 176.05292395 93.94726562 176.04882812 C88.63148675 176.03777607 83.31574829 176.02102104 78 176 C77.11081603 172.14488289 76.87245749 170.41087545 78.875 166.9375 C81.48814008 162.32338901 82.12312204 158.62126252 82.20532227 153.31347656 C82.22526749 152.17259583 82.24521271 151.03171509 82.26576233 149.85626221 C82.28247482 148.63010193 82.29918732 147.40394165 82.31640625 146.140625 C82.3475779 144.25135284 82.3475779 144.25135284 82.37937927 142.32391357 C82.43366302 138.98341129 82.48392069 135.64289778 82.53222656 132.30230713 C82.58255704 128.89028617 82.63813169 125.47835088 82.69335938 122.06640625 C82.80124221 115.37767023 82.90038733 108.68888478 83 102 C69.14 102 55.28 102 41 102 C41.02571531 109.64445987 41.0562939 117.28635354 41.13204193 124.93006897 C41.16598056 128.49041105 41.19143925 132.05032778 41.19555664 135.61083984 C41.20069965 139.70721325 41.24596063 143.8023289 41.29296875 147.8984375 C41.2890361 149.1592514 41.28510345 150.42006531 41.28105164 151.71908569 C41.39826814 158.88278366 42.24163283 163.822691 46.12641907 169.91763306 C46.41470078 170.60481415 46.70298248 171.29199524 47 172 C46.34 173.32 45.68 174.64 45 176 C30.15 176 15.3 176 0 176 C-1 171 -1 171 0.90515137 167.60365295 C4.17126497 161.5632346 3.5589461 155.03331144 3.51757812 148.34155273 C3.52300544 146.86405754 3.53013151 145.38656776 3.53881836 143.90908813 C3.55698092 139.91528137 3.55001414 135.92189009 3.53730202 131.92807651 C3.52713941 127.73931726 3.53657654 123.55059239 3.54284668 119.36183167 C3.55011282 112.33010503 3.54056176 105.29854675 3.52148438 98.2668457 C3.49970907 90.14715674 3.5067758 82.02786946 3.52879 73.90819019 C3.54696343 66.92450292 3.54949311 59.9409363 3.53903532 52.95723301 C3.53281212 48.79147927 3.53193246 44.62591414 3.54518127 40.46017265 C3.55676788 36.54393274 3.54866338 32.62820905 3.52560425 28.71202469 C3.52033243 27.27817833 3.52180476 25.84428825 3.53065491 24.41045952 C3.57458614 16.56783431 3.30322087 11.56033012 -1 5 C-0.67 3.35 -0.34 1.7 0 0 Z " fill="#EAB218" transform="translate(269,355)"/>
<path d="M0 0 C7.54656684 -0.09359984 15.09307187 -0.16421317 22.64009094 -0.20724869 C26.14634019 -0.22792701 29.65218599 -0.25587078 33.15820312 -0.30175781 C73.56611805 -0.81645232 73.56611805 -0.81645232 86.953125 11.84765625 C94.78449627 20.12324396 97.12761069 28.98544745 97.23828125 40.16015625 C97.246353 40.94587509 97.25442474 41.73159393 97.26274109 42.54112244 C97.27653592 44.2027672 97.28727853 45.86443975 97.29516602 47.52612305 C97.30663694 49.20459455 97.32701061 50.883031 97.35668945 52.5612793 C97.5586521 64.00319658 97.47892369 74.43143761 90.78125 84.25390625 C90.0284375 85.01574219 89.275625 85.77757812 88.5 86.5625 C87.7471875 87.34753906 86.994375 88.13257813 86.21875 88.94140625 C80.76660342 94 80.76660342 94 78 94 C78.37769531 94.91652344 78.75539063 95.83304687 79.14453125 96.77734375 C82.27342851 104.53541437 85.15262472 112.34156798 87.73828125 120.296875 C87.97583633 121.02487808 88.21339142 121.75288116 88.45814514 122.50294495 C89.65679029 126.18358334 90.83986667 129.86834712 92.00317383 133.56030273 C94.53586999 141.83241817 94.53586999 141.83241817 98.8984375 149.23828125 C99.59195313 150.14964844 100.28546875 151.06101562 101 152 C100.67 153.32 100.34 154.64 100 156 C88.78 156 77.56 156 66 156 C60.39 138.51 54.78 121.02 49 103 C44.71 102.67 40.42 102.34 36 102 C36.04426664 107.99622139 36.11422059 113.99140123 36.20751953 119.98706055 C36.23566557 122.02473643 36.25691166 124.0625202 36.27099609 126.1003418 C36.29251378 129.03750589 36.33920948 131.97338153 36.390625 134.91015625 C36.39185364 135.81459976 36.39308228 136.71904327 36.39434814 137.65089417 C36.49443697 142.01797218 36.77919522 145.11918572 39.10058594 148.88061523 C39.72739258 149.91001221 40.35419922 150.93940918 41 152 C40.67 153.32 40.34 154.64 40 156 C26.8 156 13.6 156 0 156 C-1 152 -1 152 0.90515137 148.56288147 C3.92525555 142.91124242 3.55980755 137.27276579 3.51757812 130.99389648 C3.5245874 129.70674744 3.53159668 128.41959839 3.53881836 127.09344482 C3.55695986 123.58307468 3.55002321 120.07317794 3.53730202 116.56280017 C3.52712854 112.87852944 3.5365795 109.19429746 3.54284668 105.51002502 C3.55010959 99.3257016 3.54057025 93.14156969 3.52148438 86.95727539 C3.49970843 79.81913591 3.5067774 72.68145335 3.52879 65.54332489 C3.54697136 59.40039023 3.54948931 53.2575927 3.53903532 47.11463982 C3.53281658 43.45189908 3.53192 39.78937279 3.54518127 36.12664604 C3.55893559 32.04306056 3.53984574 27.96025687 3.51757812 23.87670898 C3.52567505 22.67079605 3.53377197 21.46488312 3.54211426 20.22242737 C3.47350563 13.42717179 2.66994399 9.67342843 -1 4 C-0.75 1.5625 -0.75 1.5625 0 0 Z " fill="#EBB318" transform="translate(277,166)"/>
<path d="M0 0 C0.96574951 -0.00555908 1.93149902 -0.01111816 2.92651367 -0.0168457 C18.03804532 0.13394741 32.70813223 4.55052168 44.0859375 14.86328125 C52.40119421 23.70615577 54.55369743 34.31899399 54.5625 46 C54.57474609 46.86689453 54.58699219 47.73378906 54.59960938 48.62695312 C54.60154297 49.45517578 54.60347656 50.28339844 54.60546875 51.13671875 C54.60957764 51.89041748 54.61368652 52.64411621 54.61791992 53.4206543 C54.375 55.3125 54.375 55.3125 52.375 57.3125 C49.94932881 57.49963986 47.64002333 57.56835278 45.21484375 57.54296875 C44.50977188 57.54251053 43.80470001 57.54205231 43.07826233 57.5415802 C41.58788368 57.53855863 40.09750816 57.5306751 38.60717773 57.51831055 C36.31808367 57.50004456 34.02939373 57.49780091 31.74023438 57.49804688 C30.29426731 57.49313206 28.84830301 57.4873039 27.40234375 57.48046875 C26.36955544 57.47879951 26.36955544 57.47879951 25.31590271 57.47709656 C20.49105499 57.42855499 20.49105499 57.42855499 19.375 56.3125 C19.16842259 52.58951593 19.05529613 48.871871 18.94921875 45.14453125 C18.16403425 39.90462651 16.18289251 36.65683033 11.9375 33.5 C5.69569705 30.60745717 -0.79765263 30.44991945 -7.3125 32.4375 C-12.00577902 35.09407303 -14.88088922 38.08016766 -16.625 43.3125 C-17.16996618 49.74310095 -16.28994507 53.97173385 -12.625 59.3125 C-6.94844306 65.37933122 -0.0541159 69.0952796 7.25 72.875 C47.25483306 93.88382743 47.25483306 93.88382743 54.375 113.3125 C57.88247987 125.3829846 58.85160547 141.52353551 53.578125 153.12890625 C53.18109375 153.84949219 52.7840625 154.57007813 52.375 155.3125 C51.97796875 156.04339844 51.5809375 156.77429688 51.171875 157.52734375 C49.99161949 159.53303111 48.72750831 161.41982583 47.375 163.3125 C46.67375 164.323125 45.9725 165.33375 45.25 166.375 C36.31996517 176.52151016 22.38331482 180.23553388 9.375 181.3125 C-8.20435749 182.1870949 -24.53453293 181.46509657 -39.1328125 170.4140625 C-46.92249302 163.31093009 -53.23308423 152.61015755 -53.73852539 141.90893555 C-53.73328857 141.097229 -53.72805176 140.28552246 -53.72265625 139.44921875 C-53.72015869 138.64959717 -53.71766113 137.84997559 -53.71508789 137.02612305 C-53.70598389 136.02750244 -53.69687988 135.02888184 -53.6875 134 C-53.666875 130.803125 -53.64625 127.60625 -53.625 124.3125 C-41.745 124.3125 -29.865 124.3125 -17.625 124.3125 C-17.13 130.7475 -17.13 130.7475 -16.625 137.3125 C-14.9238635 143.75891202 -12.96425692 146.64176087 -7.625 150.3125 C-1.39217258 152.39010914 5.94922068 152.40081083 11.9375 149.5625 C15.99785069 147.17851816 17.88285023 144.78894932 19.375 140.3125 C20.07762116 131.34093582 20.07762116 131.34093582 17.8125 122.8125 C12.42747573 117.28939819 6.86580077 113.17900728 0.0625 109.5625 C-0.71222656 109.13984863 -1.48695313 108.71719727 -2.28515625 108.28173828 C-5.53292232 106.51052715 -8.79107047 104.75907421 -12.05224609 103.01269531 C-29.59043757 93.60230698 -44.71286613 83.77455473 -51.73046875 64.234375 C-54.91511486 52.53947162 -54.35691337 36.91274326 -49.17578125 25.9375 C-41.84334799 13.52592532 -32.2369143 5.79225968 -18.4375 1.5 C-12.31877932 0.09961659 -6.24777424 0.03035557 0 0 Z " fill="#EBB318" transform="translate(667.625,351.6875)"/>
<path d="M0 0 C0.90185532 0.00202423 1.80371063 0.00404846 2.7328949 0.00613403 C3.67753098 0.00438171 4.62216705 0.00262939 5.59542847 0.00082397 C8.73436797 -0.00359624 11.87325164 -0.00065595 15.01219177 0.00271606 C17.18313101 0.00204307 19.35407018 0.00107309 21.52500916 -0.00018311 C26.08145361 -0.00166031 30.6378785 0.0004952 35.19432068 0.00515747 C41.04920763 0.01085477 46.90404875 0.00757588 52.75893402 0.00158501 C57.24374235 -0.00202 61.72853973 -0.0008823 66.21334839 0.0017128 C68.37282313 0.00238224 70.53229886 0.00155307 72.69177246 -0.00076675 C75.70420485 -0.00329229 78.7165619 0.00054592 81.72898865 0.00613403 C82.63084396 0.0041098 83.53269928 0.00208557 84.46188354 0 C90.61667946 0.02126625 90.61667946 0.02126625 91.73094177 1.13552856 C92.96298548 9.13567564 92.85490687 17.25218819 92.79344177 25.32302856 C92.78893005 26.46578247 92.78441833 27.60853638 92.7797699 28.78591919 C92.76812446 31.56917966 92.75177174 34.35232429 92.73094177 37.13552856 C89.73094177 38.13552856 89.73094177 38.13552856 87.68016052 37.17459106 C86.93379333 36.70795044 86.18742615 36.24130981 85.41844177 35.76052856 C79.13444798 31.8344033 72.59390073 31.96151271 65.39500427 31.81912231 C64.22457581 31.79114563 64.22457581 31.79114563 63.03050232 31.76260376 C60.13908808 31.69473744 57.24750297 31.63431472 54.35594177 31.57302856 C47.87969177 31.42865356 41.40344177 31.28427856 34.73094177 31.13552856 C34.73094177 44.33552856 34.73094177 57.53552856 34.73094177 71.13552856 C39.33031677 71.01177856 43.92969177 70.88802856 48.66844177 70.76052856 C50.10050964 70.72652954 51.53257751 70.69253052 53.00804138 70.65750122 C59.86419768 70.44613057 66.09342678 69.85892922 72.73094177 68.13552856 C75.73094177 67.94802856 75.73094177 67.94802856 77.73094177 68.13552856 C78.73094177 69.13552856 78.73094177 69.13552856 78.84446716 72.55374146 C78.84430805 74.07189845 78.83861403 75.59006085 78.82859802 77.10818481 C78.82718307 77.90582748 78.82576813 78.70347015 78.8243103 79.52528381 C78.81869494 82.08290292 78.80613989 84.64043574 78.79344177 87.19802856 C78.78842875 88.92784501 78.7838655 90.65766283 78.7797699 92.38748169 C78.76872052 96.63686409 78.75144564 100.88618168 78.73094177 105.13552856 C75.09129975 106.06752804 74.0219447 106.25803805 70.41844177 104.74099731 C63.90704915 102.05290595 56.66288541 102.55968258 49.73094177 102.44802856 C44.78094177 102.34490356 39.83094177 102.24177856 34.73094177 102.13552856 C34.73094177 116.65552856 34.73094177 131.17552856 34.73094177 146.13552856 C41.28969177 146.03240356 47.84844177 145.92927856 54.60594177 145.82302856 C57.68011414 145.78568604 57.68011414 145.78568604 60.81639099 145.74758911 C62.47282578 145.71525108 64.12924068 145.68187068 65.78562927 145.64724731 C67.03678528 145.63788147 67.03678528 145.63788147 68.31321716 145.62832642 C75.97461014 145.44453319 83.06746599 143.8854854 89.66844177 139.88552856 C90.67906677 139.30802856 91.68969177 138.73052856 92.73094177 138.13552856 C93.72094177 138.46552856 94.71094177 138.79552856 95.73094177 139.13552856 C96.02384623 147.61348542 95.51792562 155.94170194 94.79344177 164.38552856 C94.66316589 165.94025879 94.66316589 165.94025879 94.53025818 167.52639771 C94.44308533 168.49569214 94.35591248 169.46498657 94.26609802 170.46365356 C94.18754578 171.33924927 94.10899353 172.21484497 94.02806091 173.11697388 C93.73094177 175.13552856 93.73094177 175.13552856 92.73094177 176.13552856 C89.65639416 176.23085184 86.6043502 176.26104236 83.52952576 176.24905396 C82.08090149 176.24927299 82.08090149 176.24927299 80.60301208 176.24949646 C77.39433079 176.24879691 74.18570674 176.24100253 70.97703552 176.23318481 C68.75886059 176.23132079 66.54068525 176.22989681 64.32250977 176.22889709 C58.47154106 176.22507072 52.620597 176.21523942 46.76963806 176.20419312 C40.80426873 176.19398156 34.83889544 176.18940002 28.8735199 176.18435669 C17.15931633 176.17361726 5.4451311 176.15653941 -6.26905823 176.13552856 C-7.36183167 171.37039185 -7.36183167 171.37039185 -6.52687073 169.25662231 C-6.1530426 168.70103638 -5.77921448 168.14545044 -5.39405823 167.57302856 C-2.49355701 163.18171029 -2.14326963 159.48459674 -2.12188721 154.24827576 C-2.1147319 153.04414536 -2.1075766 151.84001495 -2.10020447 150.59939575 C-2.09751556 149.28140991 -2.09482666 147.96342407 -2.09205627 146.60549927 C-2.0857884 145.20080905 -2.07914131 143.79612048 -2.07214355 142.39143372 C-2.05113731 137.78140408 -2.04074363 133.17137425 -2.03077698 128.56130981 C-2.02672798 126.97162547 -2.02261102 125.3819413 -2.0184269 123.79225731 C-1.99938189 116.32195745 -1.98515004 108.85166742 -1.97681493 101.38134795 C-1.96704808 92.77101482 -1.94074026 84.16093913 -1.90031403 75.55069667 C-1.87010685 68.88725869 -1.85534166 62.22389432 -1.85203391 55.56038922 C-1.84968847 51.58449346 -1.84079441 47.60887295 -1.81557274 43.63305092 C-1.7922064 39.88927774 -1.78809276 36.14595938 -1.79833412 32.40213203 C-1.79906158 30.38448299 -1.78003036 28.3668566 -1.76026917 26.3493042 C-1.79746636 19.82339473 -2.21838717 14.75216421 -5.33123493 8.94766521 C-6.64400907 6.41101876 -7.0569434 3.96372626 -7.26905823 1.13552856 C-5.36064379 -0.77288588 -2.53961235 0.00877495 0 0 Z " fill="#ECB418" transform="translate(426.26905822753906,354.8644714355469)"/>
<path d="M0 0 C16.17 0 32.34 0 49 0 C50.10730469 5.68992188 51.21460938 11.37984375 52.35546875 17.2421875 C56.63901423 39.20775942 60.9578488 61.16629283 65.32382393 83.11563492 C66.44300991 88.74273646 67.55900506 94.37043399 68.66821289 99.99951172 C69.76643366 105.57241644 70.87215174 111.14378425 71.98323631 116.71413803 C72.39931533 118.8067173 72.81275993 120.89982231 73.22341347 122.99347305 C73.79189277 125.88922393 74.37000134 128.78289556 74.95043945 131.67626953 C75.19593033 132.94451065 75.19593033 132.94451065 75.44638062 134.2383728 C76.67587604 140.29074042 78.40448255 145.49275829 81.75 150.75 C82.1625 151.4925 82.575 152.235 83 153 C82.67 153.99 82.34 154.98 82 156 C68.8 156 55.6 156 42 156 C41.67 154.68 41.34 153.36 41 152 C41.7115625 150.9790625 41.7115625 150.9790625 42.4375 149.9375 C46.43620741 142.41993008 43.41720134 132.79460739 42 125 C30.12 124.67 18.24 124.34 6 124 C5.67 127.3 5.34 130.6 5 134 C4.75 135.72916667 4.5 137.45833333 4.25 139.1875 C3.88784878 142.58533052 4.02886216 144.72311054 5.5 147.8125 C7 151 7 151 6 156 C-5.55 156 -17.1 156 -29 156 C-30.0946596 150.52670202 -29.80587517 150.5455001 -27.14038086 146.28463745 C-24.51995341 141.03487668 -23.73258446 135.02483632 -22.53125 129.31640625 C-22.21167493 127.8411529 -21.89105222 126.36612615 -21.56945801 124.89131165 C-20.71022922 120.93670079 -19.86556967 116.97911224 -19.02398682 113.02071381 C-18.14749567 108.90877326 -17.25864431 104.79950621 -16.37109375 100.68994141 C-14.93193368 94.01920024 -13.50077724 87.34678621 -12.07421875 80.67333984 C-10.31197192 72.43306754 -8.52226233 64.19902543 -6.7207489 55.96726036 C-5.73878856 51.47586058 -4.7630213 46.9831123 -3.78686523 42.490448 C-3.264905 40.09217188 -2.74099866 37.69431843 -2.21508789 35.29690552 C-1.4905665 31.98846922 -0.77529666 28.67816662 -0.0625 25.3671875 C0.14918823 24.41008377 0.36087646 23.45298004 0.57897949 22.46687317 C1.62068896 17.57954915 2.41996458 13.02746066 2 8 C1.34 7.01 0.68 6.02 0 5 C0 3.35 0 1.7 0 0 Z " fill="#ECB418" transform="translate(180,166)"/>
<path d="M0 0 C15.84 0 31.68 0 48 0 C51.37447061 14.62270599 51.37447061 14.62270599 52.65063477 21.04199219 C52.79126248 21.74637987 52.9318902 22.45076756 53.07677937 23.17650032 C53.53348561 25.46626502 53.9874647 27.75656076 54.44140625 30.046875 C54.76853944 31.6898263 55.09586557 33.33273919 55.42337036 34.97561646 C56.1144871 38.44366711 56.80457753 41.91191983 57.49398804 45.38031006 C58.56918086 50.78706487 59.64989774 56.19270671 60.73168945 61.59814453 C66.69293291 91.3935547 66.69293291 91.3935547 69.39204407 105.19799805 C70.28126595 109.73775505 71.18084143 114.27541573 72.08297729 118.81262207 C72.48141875 120.83103812 72.87471209 122.85047825 73.26248169 124.87097168 C75.62435155 138.04474916 75.62435155 138.04474916 81.15551758 150.12939453 C82 152 82 152 81 156 C68.46 156 55.92 156 43 156 C42 151 42 151 43.5625 147.5 C46.00649837 141.69412152 44.24988279 135.95218572 43 130 C42.67 128.35 42.34 126.7 42 125 C30.12 124.67 18.24 124.34 6 124 C3.27224043 136.82270338 3.27224043 136.82270338 5.625 149.25 C6.07875 150.1575 6.5325 151.065 7 152 C6.34 153.32 5.68 154.64 5 156 C-6.55 156 -18.1 156 -30 156 C-31 152 -31 152 -30.12695312 150.15917969 C-29.68287109 149.50336914 -29.23878906 148.84755859 -28.78125 148.171875 C-25.11547945 141.93602565 -23.94257609 135.26305586 -22.5 128.25 C-22.1732703 126.71741136 -21.84517191 125.18511401 -21.51586914 123.65307617 C-20.76539344 120.14787791 -20.02459264 116.64079079 -19.28955078 113.13232422 C-17.82663248 106.15807986 -16.33289274 99.19050162 -14.83984375 92.22265625 C-13.13283691 84.25301967 -11.42893136 76.2827616 -9.73974609 68.30932617 C-9.60149918 67.65682042 -9.46325226 67.00431467 -9.32081604 66.33203602 C-8.90787088 64.38281926 -8.49495097 62.43359715 -8.08203125 60.484375 C-6.27751729 51.96681498 -4.45185133 43.45486477 -2.57421875 34.953125 C-2.07536506 32.67658771 -1.57723614 30.39989323 -1.07937622 28.12313843 C-0.64063705 26.13341546 -0.19056886 24.14649244 0.26000977 22.15942383 C0.63790649 20.42728638 0.63790649 20.42728638 1.0234375 18.66015625 C1.23919434 17.69730713 1.45495117 16.73445801 1.67724609 15.74243164 C2.22761834 11.06593279 1.60924239 7.91386359 -1 4 C-0.67 2.68 -0.34 1.36 0 0 Z " fill="#ECB419" transform="translate(679,166)"/>
<path d="M0 0 C10.03726864 9.14548863 13.37319903 20.95515128 13.99609375 34.1171875 C14.12331396 41.04362133 14.12331396 41.04362133 13.81640625 44.3203125 C11.81640625 46.3203125 11.81640625 46.3203125 8.94311523 46.56323242 C7.14596069 46.55706909 7.14596069 46.55706909 5.3125 46.55078125 C4.01505859 46.54884766 2.71761719 46.54691406 1.38085938 46.54492188 C0.70418213 46.53871826 0.02750488 46.53251465 -0.66967773 46.52612305 C-2.74149846 46.50785302 -4.81287272 46.50561345 -6.88476562 46.50585938 C-17.04351118 46.46039507 -17.04351118 46.46039507 -18.18359375 45.3203125 C-18.35393097 41.82650692 -18.48066436 38.33939069 -18.52539062 34.84179688 C-18.72200478 29.56979417 -19.75035077 26.53646322 -23.18359375 22.3203125 C-27.04277458 18.91515294 -30.80081364 18.86244535 -35.74609375 19.0390625 C-39.17949708 19.43522442 -41.39151882 20.27733084 -44.18359375 22.3203125 C-47.3130814 27.26159956 -47.62017722 31.23779709 -47.58764648 36.89257812 C-47.59794136 38.15227669 -47.59794136 38.15227669 -47.60844421 39.43742371 C-47.62667673 42.20064418 -47.62288026 44.96329505 -47.6171875 47.7265625 C-47.62175059 49.65417668 -47.62705654 51.58178922 -47.6330719 53.50939941 C-47.64199571 57.5442568 -47.63958767 61.57891617 -47.62963867 65.61376953 C-47.61814241 70.77884491 -47.63837431 75.94323729 -47.66755581 81.10822296 C-47.6859187 85.08714116 -47.68562529 89.06589564 -47.67991829 93.04484558 C-47.67976513 94.94899962 -47.68580533 96.8531648 -47.69820976 98.75727844 C-47.71312193 101.42130174 -47.70244191 104.08406253 -47.68530273 106.74804688 C-47.69980469 107.92182137 -47.69980469 107.92182137 -47.71459961 109.11930847 C-47.64516014 114.28524217 -46.58507871 117.21819162 -43.18359375 121.3203125 C-38.70761033 124.37211938 -34.49778165 125.06922315 -29.18359375 124.3203125 C-25.47387406 123.16482604 -23.02156713 122.33179566 -20.5234375 119.31640625 C-18.63219235 115.08729538 -18.65484085 111.15579928 -18.55859375 106.5703125 C-18.5078109 104.84623473 -18.45332832 103.12226057 -18.39453125 101.3984375 C-18.36818604 100.26003418 -18.36818604 100.26003418 -18.34130859 99.09863281 C-18.18359375 97.3203125 -18.18359375 97.3203125 -17.18359375 96.3203125 C-14.89207958 96.23240275 -12.59786851 96.21337212 -10.3046875 96.22265625 C-9.27469383 96.22477867 -9.27469383 96.22477867 -8.22389221 96.22694397 C-6.02291574 96.23255771 -3.82203966 96.24511243 -1.62109375 96.2578125 C-0.13216292 96.26282574 1.35676949 96.26738895 2.84570312 96.27148438 C6.502637 96.28253157 10.15951183 96.29980537 13.81640625 96.3203125 C14.67724785 127.73440902 14.67724785 127.73440902 3.22265625 140.03125 C-7.04211264 149.56973807 -18.88461714 151.68051658 -32.37109375 151.6953125 C-33.52673828 151.71980469 -34.68238281 151.74429688 -35.87304688 151.76953125 C-48.50124786 151.81207432 -59.24907599 148.19386061 -69.18359375 140.3203125 C-77.55574445 131.9481618 -80.32421103 120.87712438 -80.3605957 109.41186523 C-80.3671669 108.51211472 -80.3737381 107.6123642 -80.38050842 106.68534851 C-80.40021373 103.70820018 -80.4119001 100.73110233 -80.421875 97.75390625 C-80.42595053 96.73424334 -80.43002605 95.71458042 -80.43422508 94.66401863 C-80.45507759 89.2632378 -80.46938086 83.86248229 -80.47875977 78.46166992 C-80.48980089 72.90251279 -80.52417682 67.34375848 -80.56393147 61.78474331 C-80.59017108 57.49426059 -80.5984583 53.20387261 -80.60204124 48.91331673 C-80.60689101 46.86534987 -80.61845866 44.81738678 -80.63707924 42.76949883 C-80.77089257 27.07258346 -79.48148672 14.45603759 -68.40625 2.3828125 C-51.04850583 -14.08752144 -18.71630793 -14.39715995 0 0 Z " fill="#ECB419" transform="translate(854.18359375,172.6796875)"/>
<path d="M0 0 C1.14763227 0.00276538 1.14763227 0.00276538 2.31844902 0.00558662 C3.63518105 0.00146263 3.63518105 0.00146263 4.97851372 -0.00274467 C5.94379997 0.00444588 6.90908623 0.01163643 7.90362358 0.01904488 C9.42561867 0.0186068 9.42561867 0.0186068 10.97836113 0.01815987 C14.34399679 0.01955713 17.70941314 0.03513706 21.0750103 0.05078316 C23.40385632 0.05451187 25.7327039 0.05735951 28.06155205 0.0593586 C34.20023723 0.06700617 40.33882823 0.08666432 46.47747612 0.10876656 C52.73783913 0.1292008 58.99821732 0.13835512 65.25860405 0.14843941 C77.54901008 0.16990914 89.83934612 0.20405862 102.1296978 0.24609566 C104.18762027 4.04113163 104.5181664 7.03468666 104.7546978 11.37109566 C104.81161797 12.40170113 104.81161797 12.40170113 104.86968803 13.45312691 C105.27842326 21.71310055 105.21581341 29.97899719 105.1296978 38.24609566 C101.00800219 38.24609566 100.27296319 37.98901027 97.0671978 35.80859566 C93.0141274 33.07802424 89.90905156 32.12734119 85.02422905 31.92968941 C84.04131889 31.88779488 83.05840874 31.84590034 82.04571342 31.80273628 C81.02155327 31.76341988 79.99739311 31.72410347 78.9421978 31.68359566 C77.90643608 31.64041206 76.87067436 31.59722847 75.80352592 31.55273628 C73.2457159 31.446652 70.68780935 31.3445942 68.1296978 31.24609566 C68.14352984 48.02345881 68.18588192 64.80047338 68.26178837 81.57765961 C68.29637831 89.36837428 68.32178598 97.15891311 68.32525444 104.94970894 C68.32830272 111.74359303 68.34890858 118.53716349 68.39022237 125.33092654 C68.41147637 128.92518665 68.42419261 132.51900174 68.41585159 136.11332512 C68.40684878 140.13506775 68.43706094 144.1556322 68.47027397 148.177248 C68.45733551 149.94671288 68.45733551 149.94671288 68.44413567 151.75192451 C68.53826158 158.57140273 69.52011586 163.20606616 73.15678692 169.02976608 C74.1296978 171.24609566 74.1296978 171.24609566 73.1296978 176.24609566 C58.2796978 176.24609566 43.4296978 176.24609566 28.1296978 176.24609566 C27.1296978 171.24609566 27.1296978 171.24609566 27.8718853 169.36718941 C28.24571342 168.81160347 28.61954155 168.25601753 29.0046978 167.68359566 C31.79132609 163.4646794 32.25366383 159.8979418 32.28791618 154.86773872 C32.297705 153.77681419 32.30749382 152.68588966 32.31757927 151.56190681 C32.32333473 150.37004265 32.32909019 149.17817848 32.33502007 147.95019722 C32.34491966 146.69140251 32.35481926 145.4326078 32.36501884 144.1356678 C32.39202531 140.68768774 32.41305787 137.23969405 32.43302083 133.79166698 C32.45490669 130.1868314 32.48228265 126.58203763 32.50907707 122.97723579 C32.55896882 116.15273499 32.60392068 109.32821095 32.64709944 102.50366473 C32.69650189 94.73343832 32.75140886 86.96325385 32.80677903 79.19306803 C32.92054506 63.21078268 33.02739579 47.22845874 33.1296978 31.24609566 C29.46191242 31.29844102 25.7963981 31.39362408 22.1296978 31.49609566 C21.09973686 31.51027534 20.06977592 31.52445503 19.00860405 31.53906441 C12.58389336 31.74367303 7.46712718 32.48738786 2.1296978 36.24609566 C1.64629936 36.78524605 1.16290092 37.32439644 0.66485405 37.87988472 C-0.8703022 39.24609566 -0.8703022 39.24609566 -4.8703022 39.24609566 C-4.96573719 29.17990697 -5.04959174 19.11347844 -4.4953022 9.05859566 C-4.42569283 7.78629097 -4.35608345 6.51398628 -4.2843647 5.20312691 C-3.83486064 1.99298944 -3.41743302 0.4496682 0 0 Z " fill="#ECB418" transform="translate(740.8703022003174,354.75390434265137)"/>
<path d="M0 0 C10.80458085 -0.02312312 21.60915586 -0.04091493 32.41375637 -0.05181217 C37.4302247 -0.05704107 42.44667615 -0.06413883 47.46313477 -0.07543945 C52.30009694 -0.0862681 57.13704284 -0.09227679 61.97401619 -0.09487724 C63.82368285 -0.09673153 65.67334857 -0.10035222 67.52300835 -0.10573006 C70.10447014 -0.1129402 72.68586382 -0.11399095 75.26733398 -0.11352539 C76.03985001 -0.11712067 76.81236603 -0.12071594 77.60829163 -0.12442017 C82.88594784 -0.11405216 82.88594784 -0.11405216 84 1 C85.15894147 7.98606675 85.12694622 15.06565995 85.0625 22.125 C85.05798828 23.08148438 85.05347656 24.03796875 85.04882812 25.0234375 C85.03720017 27.34902758 85.02086102 29.6744776 85 32 C80.66383189 31.22780568 77.04889008 29.73523861 73 28 C68.84133285 26.93946996 64.79270324 26.80298376 60.51171875 26.68359375 C59.22483154 26.64548584 57.93794434 26.60737793 56.61206055 26.56811523 C54.17440308 26.50346069 54.17440308 26.50346069 51.6875 26.4375 C46.510625 26.293125 41.33375 26.14875 36 26 C36 38.87 36 51.74 36 65 C42.4040625 64.7834375 42.4040625 64.7834375 48.9375 64.5625 C50.26515381 64.51939697 51.59280762 64.47629395 52.96069336 64.43188477 C54.03456299 64.39377686 55.10843262 64.35566895 56.21484375 64.31640625 C57.29886475 64.27974854 58.38288574 64.24309082 59.49975586 64.20532227 C63.67864595 63.96019103 67.83952959 63.46227449 72 63 C72 73.23 72 83.46 72 94 C67.32399115 94 65.23980065 93.77842766 61.09716797 92.48535156 C56.51423993 91.42471583 51.74678235 91.51456893 47.0625 91.375 C45.46438477 91.31699219 45.46438477 91.31699219 43.83398438 91.2578125 C41.22282266 91.16413854 38.61165696 91.07841665 36 91 C36.04175759 98.40193618 36.1141712 105.80312585 36.20751953 113.20458984 C36.23567877 115.72047175 36.25691828 118.2364413 36.27099609 120.75244141 C36.29249456 124.37708236 36.3391837 128.00067517 36.390625 131.625 C36.39185364 132.74302002 36.39308228 133.86104004 36.39434814 135.01293945 C36.5222828 141.89344582 37.71951538 145.99561684 41 152 C40.67 153.32 40.34 154.64 40 156 C26.8 156 13.6 156 0 156 C-1 152 -1 152 -0.02553558 149.87040901 C0.44457695 149.10381399 0.91468948 148.33721897 1.39904785 147.5473938 C4.62992923 141.42133934 4.69402106 136.06329849 4.61523438 129.24169922 C4.62078339 128.00463226 4.6263324 126.76756531 4.63204956 125.49301147 C4.64177753 122.12896117 4.62935169 118.76647194 4.60576439 115.40258932 C4.58551633 111.86695916 4.59154199 108.33135875 4.59387207 104.79568481 C4.59381866 98.86283867 4.57415704 92.93031273 4.54199219 86.99755859 C4.50507234 80.15482202 4.49632304 73.31250386 4.5032897 66.46968067 C4.50961045 59.86270664 4.49881361 53.25587487 4.47932434 46.6489296 C4.47118559 43.84768764 4.46843423 41.04651873 4.47001648 38.24526596 C4.47106445 34.32986074 4.44680414 30.41482925 4.41992188 26.49951172 C4.42285248 25.34708984 4.42578308 24.19466797 4.42880249 23.00732422 C4.44300803 13.31644425 4.44300803 13.31644425 0 5 C-0.04063832 3.33382885 -0.042721 1.66611905 0 0 Z " fill="#EDB418" transform="translate(564,166)"/>
<path d="M0 0 C1.28265244 0.00303635 1.28265244 0.00303635 2.59121704 0.00613403 C3.93501938 0.00350555 3.93501938 0.00350555 5.30596924 0.00082397 C8.28258166 -0.0035959 11.25913521 -0.00065608 14.23574829 0.00271606 C16.2945863 0.00204306 18.35342423 0.00107307 20.41226196 -0.00018311 C24.73331456 -0.00166026 29.05434652 0.00049505 33.37539673 0.00515747 C38.92761375 0.01085477 44.47978244 0.00757586 50.03199768 0.00158501 C54.2851905 -0.00202012 58.53837178 -0.00088224 62.79156494 0.0017128 C64.83939622 0.0023822 66.88722852 0.00155319 68.93505859 -0.00076675 C71.79182737 -0.00329249 74.64851672 0.0005462 77.50527954 0.00613403 C78.36038116 0.0041098 79.21548279 0.00208557 80.09649658 0 C85.9339859 0.02126618 85.9339859 0.02126618 87.04824829 1.13552856 C87.29249458 3.87048392 87.47539817 6.58211906 87.61074829 9.32302856 C87.65320679 10.12788696 87.69566528 10.93274536 87.7394104 11.76199341 C88.08945782 18.89112827 88.15152531 25.99793871 88.04824829 33.13552856 C87.05824829 33.63052856 87.05824829 33.63052856 86.04824829 34.13552856 C85.57774048 33.78619263 85.10723267 33.43685669 84.62246704 33.07693481 C83.68854126 32.39437622 83.68854126 32.39437622 82.73574829 31.69802856 C82.12086548 31.24556763 81.50598267 30.79310669 80.87246704 30.32693481 C77.76941514 28.30031634 74.98971904 27.98005274 71.38027954 27.81912231 C70.48760376 27.77722778 69.59492798 27.73533325 68.67520142 27.69216919 C67.74643188 27.65285278 66.81766235 27.61353638 65.86074829 27.57302856 C64.9203772 27.52984497 63.9800061 27.48666138 63.01113892 27.44216919 C60.69031975 27.33614192 58.36939504 27.23407828 56.04824829 27.13552856 C56.08548768 41.97437641 56.14545487 56.81298881 56.23215103 71.65163326 C56.27188532 78.54218348 56.30430613 85.43262043 56.31924438 92.32327271 C56.33368749 98.97590166 56.36886283 105.62821519 56.41655731 112.28070259 C56.43136899 114.81591295 56.43928918 117.35117344 56.44013214 119.88642693 C56.44250404 123.4437165 56.46960435 127.00003735 56.50234985 130.55715942 C56.49731949 131.60013687 56.49228912 132.64311432 56.48710632 133.71769714 C56.57042785 139.58675337 57.38222889 143.94938917 60.09478378 149.1832056 C61.06639518 151.17268631 61.67401117 152.95454581 62.04824829 155.13552856 C61.04824829 156.13552856 61.04824829 156.13552856 57.17105103 156.24905396 C55.44130662 156.24889478 53.71155748 156.24319706 51.98184204 156.23318481 C51.07321915 156.23176987 50.16459625 156.23035492 49.22843933 156.22889709 C46.31417608 156.2232805 43.39998848 156.21072521 40.48574829 156.19802856 C38.51504627 156.1930157 36.54434305 156.18845243 34.57363892 156.18435669 C29.7318127 156.17330568 24.89004334 156.15602994 20.04824829 156.13552856 C19.29824829 154.57302856 19.29824829 154.57302856 19.04824829 152.13552856 C19.67636414 151.13782944 20.30447998 150.14013031 20.95162964 149.11219788 C23.99266352 144.1689308 23.62054584 139.16726782 23.59414673 133.50881958 C23.60448441 132.35687607 23.61482208 131.20493256 23.62547302 130.01808167 C23.65488036 126.22505634 23.65639984 122.43256514 23.65762329 118.63943481 C23.67260623 116.00383996 23.68933361 113.36825449 23.70773315 110.73268127 C23.74821467 104.51387279 23.76861527 98.29516896 23.78170705 92.07624906 C23.79760383 84.99269383 23.83603059 77.90931602 23.87630033 70.82586396 C23.9585916 56.26248909 24.01275091 41.69909175 24.04824829 27.13552856 C20.85946224 27.18788514 17.67328663 27.28306402 14.48574829 27.38552856 C13.59049438 27.39970825 12.69524048 27.41388794 11.77285767 27.42849731 C5.68887248 27.65135391 2.09427567 28.71894753 -2.95175171 32.13552856 C-4.27821327 32.81576526 -5.60784048 33.49045118 -6.95175171 34.13552856 C-7.95175171 33.13552856 -7.95175171 33.13552856 -8.08456421 30.35427856 C-8.06941496 23.14323545 -7.91174956 15.96153215 -7.51425171 8.76052856 C-7.47509644 8.01738403 -7.43594116 7.2742395 -7.39559937 6.50857544 C-6.9954784 -0.03439889 -6.51008308 0.02371646 0 0 Z " fill="#EBB318" transform="translate(394.9517517089844,165.86447143554688)"/>
<path d="M0 0 C0.82862045 0.00359528 1.65724091 0.00719055 2.51097107 0.01089478 C3.81329178 0.01067574 3.81329178 0.01067574 5.141922 0.01045227 C8.02594967 0.01115171 10.9099136 0.01894554 13.79393005 0.02676392 C15.78790247 0.02862799 17.78187535 0.03005194 19.77584839 0.03105164 C25.03498082 0.03487769 30.29408583 0.04470871 35.5532074 0.05575562 C40.91534555 0.06596786 46.27748811 0.07054885 51.63963318 0.07559204 C62.16894213 0.0863309 72.69823069 0.10340837 83.2275238 0.12442017 C83.39335114 1.55705993 83.55728603 2.98991883 83.72042847 4.42286682 C83.85767161 5.61971556 83.85767161 5.61971556 83.99768734 6.84074306 C84.28080396 9.65381694 84.34062558 12.42679428 84.32518005 15.25332642 C84.32034607 16.83403931 84.32034607 16.83403931 84.31541443 18.44668579 C84.30284607 20.05060181 84.30284607 20.05060181 84.2900238 21.68692017 C84.28551208 22.7910022 84.28100037 23.89508423 84.27635193 25.03262329 C84.2646752 27.72994717 84.24829905 30.42715363 84.2275238 33.12442017 C80.85044612 32.39119244 78.96030174 31.24011921 76.2275238 29.12442017 C73.50250473 28.21608047 71.6051841 27.94082031 68.77830505 27.80801392 C67.50696716 27.74517212 67.50696716 27.74517212 66.20994568 27.68106079 C65.32887146 27.64174438 64.44779724 27.60242798 63.5400238 27.56192017 C62.20101013 27.49714478 62.20101013 27.49714478 60.83494568 27.43106079 C58.63262272 27.32506664 56.43018907 27.22299966 54.2275238 27.12442017 C54.28814628 41.85013073 54.36570805 56.57567147 54.46323872 71.30118561 C54.50813598 78.13905797 54.54756445 84.97687897 54.57395935 91.81484985 C54.59945399 98.41556648 54.64039952 105.01607159 54.69071007 111.61665344 C54.70737707 114.13315477 54.71889237 116.64969574 54.72513771 119.16624451 C54.7347802 122.69486436 54.76284298 126.22289811 54.79515076 129.75137329 C54.79371567 130.78859528 54.79228058 131.82581726 54.790802 132.89447021 C54.87001084 139.02370771 55.75179823 143.51124219 58.2275238 149.12442017 C58.90487597 151.12082656 59.57591315 153.11946431 60.2275238 155.12442017 C59.2275238 156.12442017 59.2275238 156.12442017 55.35032654 156.23794556 C53.62058213 156.23778638 51.89083299 156.23208866 50.16111755 156.22207642 C49.25249466 156.22066147 48.34387177 156.21924652 47.40771484 156.2177887 C44.4934516 156.2121721 41.579264 156.19961681 38.6650238 156.18692017 C36.69432178 156.1819073 34.72361857 156.17734403 32.75291443 156.17324829 C27.91108822 156.16219728 23.06931885 156.14492155 18.2275238 156.12442017 C17.8975238 155.13442017 17.5675238 154.14442017 17.2275238 153.12442017 C18.18286854 151.37295481 19.14447345 149.62135551 20.2197113 147.94082642 C22.13193134 144.49438333 22.35601633 141.16739827 22.38574219 137.27755737 C22.39553101 136.304431 22.40531982 135.33130463 22.41540527 134.32868958 C22.42116074 133.26773575 22.4269162 132.20678192 22.43284607 131.11367798 C22.44769547 129.4303109 22.44769547 129.4303109 22.46284485 127.7129364 C22.49444838 124.00116083 22.51921288 120.28937246 22.54393005 116.57754517 C22.56450056 114.00493028 22.58549706 111.43231876 22.60690308 108.85971069 C22.65646971 102.77894442 22.70173764 96.69816005 22.74492544 90.61734557 C22.79434017 83.69353269 22.84924257 76.76976672 22.90460503 69.84599924 C23.01834907 55.60551696 23.12520456 41.36498888 23.2275238 27.12442017 C19.87188363 27.14741945 16.51956867 27.22499176 13.1650238 27.31192017 C12.22207458 27.31772095 11.27912537 27.32352173 10.30760193 27.32949829 C3.54740717 27.54149046 0.47612232 28.93222747 -4.7724762 33.12442017 C-6.0924762 33.12442017 -7.4124762 33.12442017 -8.7724762 33.12442017 C-8.63267165 29.10335368 -8.484553 25.08263406 -8.3349762 21.06192017 C-8.29565979 19.9281897 -8.25634338 18.79445923 -8.21583557 17.62637329 C-7.54830481 0.01383086 -7.54830481 0.01383086 0 0 Z " fill="#EDB519" transform="translate(886.7724761962891,165.87557983398438)"/>
<path d="M0 0 C14.85 0 29.7 0 45 0 C46 5 46 5 44.09584045 8.41079712 C40.86307387 14.38857589 41.43256818 20.80217187 41.46655273 27.42724609 C41.45948565 28.88017143 41.45073733 30.33308941 41.44044495 31.78599548 C41.41802706 35.71387551 41.42087302 39.64135114 41.42976642 43.56927061 C41.43489347 46.85684624 41.42756971 50.14434701 41.42029434 53.43191493 C41.40331883 61.19263283 41.40683665 68.953154 41.42358398 76.71386719 C41.44049715 84.70064083 41.42467682 92.68686758 41.3923611 100.67358148 C41.36560484 107.54861773 41.35840561 114.42348436 41.36687618 121.29856741 C41.3717886 125.39684477 41.36968205 129.49479337 41.34908867 133.59302902 C41.33063657 137.44944539 41.33680484 141.30507995 41.36128807 145.16145515 C41.36626631 146.56985783 41.36288443 147.97832107 41.35013962 149.38667488 C41.28392836 157.33747191 41.76213019 163.15262485 46.12374973 169.93818092 C46.41291232 170.61858122 46.70207491 171.29898151 47 172 C46.34 173.32 45.68 174.64 45 176 C30.15 176 15.3 176 0 176 C-1 171 -1 171 -0.2578125 169.12109375 C0.11601563 168.56550781 0.48984375 168.00992188 0.875 167.4375 C3.78112387 163.03766911 4.12612705 159.32783583 4.15390015 154.08151245 C4.16250061 152.87041306 4.17110107 151.65931366 4.17996216 150.41151428 C4.18439702 149.07235761 4.18869541 147.73320048 4.19287109 146.39404297 C4.20077649 144.98112285 4.20904571 143.56820472 4.21765137 142.1552887 C4.24382517 137.51760778 4.2591763 132.87991807 4.2734375 128.2421875 C4.27879945 126.64262003 4.28417697 125.04305262 4.28956985 123.44348526 C4.3111935 116.78654448 4.32992771 110.12960608 4.34119225 103.47263908 C4.3574158 93.94929708 4.39056042 84.42636405 4.44759309 74.90317619 C4.48637172 68.19811154 4.50583439 61.49315591 4.51111281 54.78798211 C4.51475601 50.78795131 4.52666617 46.78835717 4.55921555 42.78844833 C4.58943571 39.02080239 4.59555912 35.2538541 4.58383179 31.48611259 C4.58350815 29.45789401 4.6078815 27.42971757 4.63320923 25.4016571 C4.5847247 18.24411342 3.85150746 13.27029593 -0.02441978 7.17015266 C-1 5 -1 5 0 0 Z " fill="#EBB318" transform="translate(546,355)"/>
<path d="M0 0 C1.6874269 0.00015917 3.37485866 0.00585622 5.06225586 0.01586914 C6.39189613 0.01799156 6.39189613 0.01799156 7.74839783 0.02015686 C10.59133215 0.02577324 13.43418892 0.03832848 16.27709961 0.05102539 C18.19962452 0.05603828 20.12215065 0.06060155 22.04467773 0.06469727 C26.7680151 0.07574798 31.49129419 0.09302356 36.21459961 0.11352539 C36.83367157 1.8983469 36.83367157 1.8983469 37.21459961 4.11352539 C36.58589966 5.24966782 35.95719971 6.38581024 35.30944824 7.55638123 C32.30240873 13.18320793 32.65464042 18.77535957 32.69702148 25.02783203 C32.69001221 26.30522751 32.68300293 27.58262299 32.67578125 28.89872742 C32.65764109 32.38224013 32.66457582 35.86527574 32.67729759 39.34879613 C32.68747176 43.00503973 32.67801992 46.6612443 32.67175293 50.31748962 C32.66449022 56.45473516 32.67402882 62.59178771 32.69311523 68.72900391 C32.71489122 75.81261302 32.70782211 82.89576168 32.68580961 89.97935969 C32.66762775 96.07558591 32.66511054 102.17167394 32.67556429 108.26791853 C32.68178275 111.90271417 32.68268041 115.53729373 32.66941833 119.17207527 C32.65566309 123.2245298 32.67475467 127.27619663 32.69702148 131.32861328 C32.68892456 132.52517548 32.68082764 133.72173767 32.67248535 134.95455933 C32.74169904 141.75811055 33.60955429 145.41130207 37.21459961 151.11352539 C36.88459961 152.76352539 36.55459961 154.41352539 36.21459961 156.11352539 C23.01459961 156.11352539 9.81459961 156.11352539 -3.78540039 156.11352539 C-4.78540039 152.11352539 -4.78540039 152.11352539 -2.91040039 148.61352539 C-2.54172852 148.04633789 -2.17305664 147.47915039 -1.79321289 146.89477539 C0.21418807 143.34681089 0.34313965 139.88763726 0.36177063 135.87165833 C0.36892593 134.81056854 0.37608124 133.74947876 0.38345337 132.65623474 C0.38614227 131.49721146 0.38883118 130.33818817 0.39160156 129.14404297 C0.40145836 127.30679657 0.40145836 127.30679657 0.41151428 125.43243408 C0.43124357 121.37430577 0.44291344 117.31621696 0.45288086 113.25805664 C0.45693039 111.85782032 0.46104737 110.45758418 0.46523094 109.05734825 C0.48427373 102.47658617 0.49850572 95.89583522 0.50684291 89.3150509 C0.51660716 81.73423117 0.54290896 74.15370406 0.5833438 66.57298738 C0.61356945 60.70359776 0.62831794 54.83429171 0.63162392 48.96482581 C0.63396739 45.46399061 0.64283503 41.96346833 0.6680851 38.46271706 C0.69583915 34.55171115 0.69151497 30.64108582 0.68457031 26.72998047 C0.69738037 25.58107834 0.71019043 24.43217621 0.72338867 23.24845886 C0.68374336 17.10973093 0.04865271 12.49568186 -2.82926655 7.02935314 C-3.81558519 5.0530434 -4.41324852 3.28928913 -4.78540039 1.11352539 C-3.78540039 0.11352539 -3.78540039 0.11352539 0 0 Z " fill="#EEB619" transform="translate(503.785400390625,165.886474609375)"/>
<path d="M0 0 C20.432 0 20.432 0 25.7421875 4.46484375 C30.76136966 10.98978056 30.21191728 16.83893011 30.25 24.8125 C30.270625 25.88048828 30.29125 26.94847656 30.3125 28.04882812 C30.34272188 34.15742502 30.04148783 38.64842974 27 44 C18.69691158 51.887934 13.30013769 49 0 49 C0 32.83 0 16.66 0 0 Z " fill="#171112" transform="translate(313,192)"/>
<path d="M0 0 C0.66 0.33 1.32 0.66 2 1 C2.57495117 2.77368164 2.57495117 2.77368164 3.04296875 5.16015625 C3.22641846 6.08046631 3.40986816 7.00077637 3.59887695 7.94897461 C3.79312256 8.97643799 3.98736816 10.00390137 4.1875 11.0625 C4.39528076 12.13056885 4.60306152 13.1986377 4.81713867 14.29907227 C6.93068679 25.32392021 8.87183491 36.3811522 10.8125 47.4375 C10.97124603 48.34146515 11.12999207 49.2454303 11.29354858 50.17678833 C11.74627898 52.76197894 12.19608826 55.34765631 12.64453125 57.93359375 C12.78178619 58.71898529 12.91904114 59.50437683 13.06045532 60.31356812 C14 65.76698075 14 65.76698075 14 68 C5.09 68 -3.82 68 -13 68 C-11.57938703 56.07920422 -9.44719856 44.37341485 -7.11376953 32.59960938 C-6.49583637 29.47897317 -5.88611133 26.35681078 -5.27734375 23.234375 C-4.88329214 21.22907236 -4.48877757 19.22386062 -4.09375 17.21875 C-3.91348267 16.29574097 -3.73321533 15.37273193 -3.54748535 14.42175293 C-2.57436305 9.53310624 -1.44889963 4.76997295 0 0 Z " fill="#161112" transform="translate(703,197)"/>
<path d="M0 0 C0.66 0 1.32 0 2 0 C6.27565515 22.62767573 10.51980788 45.23374324 14 68 C5.09 68 -3.82 68 -13 68 C-10.49205473 53.05682609 -7.71779982 38.18254432 -4.8125 23.3125 C-4.54252197 21.92830368 -4.54252197 21.92830368 -4.26708984 20.5161438 C-3.74860722 17.86071901 -3.22827824 15.20566467 -2.70703125 12.55078125 C-2.54987137 11.74747375 -2.39271149 10.94416626 -2.23078918 10.11651611 C-1.56141479 6.72179734 -0.85917063 3.35153582 0 0 Z " fill="#171111" transform="translate(204,197)"/>
<path d="M0 0 C15.75 0 15.75 0 21.0546875 0.21875 C22.74658203 0.28642578 22.74658203 0.28642578 24.47265625 0.35546875 C25.59542969 0.40316406 26.71820313 0.45085937 27.875 0.5 C29.64037109 0.57154297 29.64037109 0.57154297 31.44140625 0.64453125 C34.29438415 0.76050596 37.14723089 0.87901633 40 1 C40 1.33 40 1.66 40 2 C27.46 2 14.92 2 2 2 C2.02320313 5.80273438 2.04640625 9.60546875 2.0703125 13.5234375 C2.08589592 17.1936815 2.09804813 20.86392186 2.10986328 24.53417969 C2.11994038 27.09116253 2.13360226 29.64813379 2.15087891 32.20507812 C2.17505217 35.87372692 2.18646585 39.54222379 2.1953125 43.2109375 C2.20563507 44.35992523 2.21595764 45.50891296 2.22659302 46.69271851 C2.22674408 47.7536673 2.22689514 48.81461609 2.22705078 49.90771484 C2.231492 50.84481293 2.23593323 51.78191101 2.24050903 52.74740601 C2 55 2 55 0 57 C0 38.19 0 19.38 0 0 Z " fill="#05030B" transform="translate(310,457)"/>
<path d="M0 0 C0.33 0 0.66 0 1 0 C1 18.15 1 36.3 1 55 C12.88 55 24.76 55 37 55 C37 55.33 37 55.66 37 56 C18.19 56.495 18.19 56.495 -1 57 C-1.02094604 49.72241539 -1.04098406 42.44493937 -1.05175018 35.16735077 C-1.05703969 31.77862769 -1.0641128 28.38992944 -1.07543945 25.0012207 C-1.08834267 21.11670223 -1.09322924 17.23219403 -1.09765625 13.34765625 C-1.10281754 12.12788589 -1.10797882 10.90811554 -1.11329651 9.65138245 C-1.11337204 8.53029587 -1.11344757 7.40920929 -1.11352539 6.25415039 C-1.115746 5.26153702 -1.11796661 4.26892365 -1.12025452 3.24623108 C-1 1 -1 1 0 0 Z " fill="#03020B" transform="translate(311,369)"/>
<path d="M0 0 C1.13363662 3.40090985 0.80581731 4.74297732 0.0625 8.1875 C-1.68215964 16.88463485 -1.68215964 16.88463485 0.625 25.25 C1.07875 26.1575 1.5325 27.065 2 28 C1.34 29.32 0.68 30.64 0 32 C-11.55 32 -23.1 32 -35 32 C-35.33 30.68 -35.66 29.36 -36 28 C-35.34 27.67 -34.68 27.34 -34 27 C-34 27.99 -34 28.98 -34 30 C-22.78 30 -11.56 30 0 30 C-0.99 27.69 -1.98 25.38 -3 23 C-3.90050181 15.67010889 -3.03553539 8.08722907 -1 1 C-0.67 0.67 -0.34 0.34 0 0 Z " fill="#F5DE34" transform="translate(684,290)"/>
<path d="M0 0 C2.77748371 1.38874186 3.09237418 3.38630052 4.19921875 6.15625 C5.03655579 8.21565131 5.03655579 8.21565131 6.75 10.75 C7.1625 11.4925 7.575 12.235 8 13 C7.67 13.99 7.34 14.98 7 16 C-6.2 16 -19.4 16 -33 16 C-33.33 14.68 -33.66 13.36 -34 12 C-32.0625 9.25 -32.0625 9.25 -30 7 C-30.57584432 9.38564077 -31.22227595 11.66682784 -32 14 C-19.46 14 -6.92 14 6 14 C4.02 10.7 2.04 7.4 0 4 C0 2.68 0 1.36 0 0 Z " fill="#F3DA33" transform="translate(255,306)"/>
<path d="M0 0 C0 10.23 0 20.46 0 31 C-5.00147987 31 -6.81156072 30.97103025 -11 29 C-9.25 28.375 -9.25 28.375 -7 28 C-5.68 28.66 -4.36 29.32 -3 30 C-3 21.09 -3 12.18 -3 3 C-5.97 2.505 -5.97 2.505 -9 2 C-6 0 -6 0 0 0 Z " fill="#F1CC2C" transform="translate(636,229)"/>
<path d="M0 0 C2 1 2 1 2.86962891 3.19311523 C3.29381104 4.6115271 3.29381104 4.6115271 3.7265625 6.05859375 C4.0359375 7.08404297 4.3453125 8.10949219 4.6640625 9.16601562 C4.98117187 10.24560547 5.29828125 11.32519531 5.625 12.4375 C5.94984375 13.51322266 6.2746875 14.58894531 6.609375 15.69726562 C9 23.69782366 9 23.69782366 9 26 C19.56 26 30.12 26 41 26 C41.495 24.515 41.495 24.515 42 23 C42.5625 24.9375 42.5625 24.9375 43 27 C42 28 42 28 38.76538086 28.11352539 C37.33185874 28.11336631 35.89833088 28.10767407 34.46484375 28.09765625 C33.33496788 28.09553383 33.33496788 28.09553383 32.18226624 28.09336853 C29.7673044 28.08775376 27.35243399 28.07519883 24.9375 28.0625 C23.30403779 28.0574869 21.67057414 28.05292366 20.03710938 28.04882812 C16.02470415 28.03777954 12.01236759 28.02050506 8 28 C6.65958897 23.89811052 5.32888808 19.79313564 4 15.6875 C3.6184375 14.52025391 3.236875 13.35300781 2.84375 12.15039062 C2.4828125 11.03212891 2.121875 9.91386719 1.75 8.76171875 C1.41484375 7.73006592 1.0796875 6.69841309 0.734375 5.63549805 C0 3 0 3 0 0 Z " fill="#F4DD34" transform="translate(335,294)"/>
<path d="M0 0 C0.99 0 1.98 0 3 0 C2.67 33.33 2.34 66.66 2 101 C1.67 101 1.34 101 1 101 C0.67 67.67 0.34 34.34 0 0 Z " fill="#1E1817" transform="translate(388,367)"/>
<path d="M0 0 C0.66 0.99 1.32 1.98 2 3 C1.525625 3.45375 1.05125 3.9075 0.5625 4.375 C-1.09027808 5.93258204 -1.09027808 5.93258204 -2 8 C10.87 8 23.74 8 37 8 C36.34 6.02 35.68 4.04 35 2 C37.47442129 4.15167069 38.56238367 5.71787754 39 9 C38 10 38 10 34.12280273 10.11352539 C32.39305833 10.11336621 30.66330919 10.10766849 28.93359375 10.09765625 C28.02497086 10.0962413 27.11634796 10.09482635 26.18019104 10.09336853 C23.26592779 10.08775193 20.35174019 10.07519665 17.4375 10.0625 C15.46679798 10.05748714 13.49609476 10.05292386 11.52539062 10.04882812 C6.68356441 10.03777711 1.84179505 10.02050138 -3 10 C-4 7 -4 7 -3.22265625 5.17578125 C-2.1484375 3.45052083 -1.07421875 1.72526042 0 0 Z " fill="#F6DC34" transform="translate(908,312)"/>
<path d="M0 0 C0.33 0.99 0.66 1.98 1 3 C-0.485 5.475 -0.485 5.475 -2 8 C17.305 8.495 17.305 8.495 37 9 C36.34 7.02 35.68 5.04 35 3 C37.47442129 5.15167069 38.56238367 6.71787754 39 10 C38 11 38 11 34.12280273 11.11352539 C32.39305833 11.11336621 30.66330919 11.10766849 28.93359375 11.09765625 C28.02497086 11.0962413 27.11634796 11.09482635 26.18019104 11.09336853 C23.26592779 11.08775193 20.35174019 11.07519665 17.4375 11.0625 C15.46679798 11.05748714 13.49609476 11.05292386 11.52539062 11.04882812 C6.68356441 11.03777711 1.84179505 11.02050138 -3 11 C-4.09716797 7.24023438 -4.09716797 7.24023438 -3.22265625 5.078125 C-1.61132812 2.5390625 -1.61132812 2.5390625 0 0 Z " fill="#F8DD34" transform="translate(418,311)"/>
<path d="M0 0 C3.32368224 1.10789408 3.61563093 1.48436217 5.25 4.375 C5.78367187 5.28378906 5.78367187 5.28378906 6.328125 6.2109375 C7 8 7 8 6 11 C-6.54 10.67 -19.08 10.34 -32 10 C-31.67 8.68 -31.34 7.36 -31 6 C-30.67 6.66 -30.34 7.32 -30 8 C-26.2500163 8.02905924 -22.50006163 8.04681874 -18.75 8.0625 C-17.68652344 8.07087891 -16.62304688 8.07925781 -15.52734375 8.08789062 C-14.50253906 8.09111328 -13.47773437 8.09433594 -12.421875 8.09765625 C-11.47924805 8.10289307 -10.53662109 8.10812988 -9.56542969 8.11352539 C-7.21876563 8.00968082 -5.24355522 7.66706529 -3 7 C-2.67 5.35 -2.34 3.7 -2 2 C-1.34 2 -0.68 2 0 2 C0 1.34 0 0.68 0 0 Z " fill="#E7A610" transform="translate(533,310)"/>
<path d="M0 0 C1.5625 1.25 1.5625 1.25 3 3 C2.67 4.32 2.34 5.64 2 7 C-11.2 7 -24.4 7 -38 7 C-38.33 5.68 -38.66 4.36 -39 3 C-38.34 2.67 -37.68 2.34 -37 2 C-37 2.99 -37 3.98 -37 5 C-24.46 4.67 -11.92 4.34 1 4 C0.505 2.02 0.505 2.02 0 0 Z " fill="#F7DC31" transform="translate(602,315)"/>
<path d="M0 0 C2.28458499 3.42687748 2.24451452 4.63940311 2.22705078 8.66479492 C2.22689972 9.82577194 2.22674866 10.98674896 2.22659302 12.1829071 C2.21627045 13.43610245 2.20594788 14.68929779 2.1953125 15.98046875 C2.1924826 17.26359451 2.18965271 18.54672028 2.18673706 19.86872864 C2.17910797 23.27676202 2.15946587 26.68462441 2.1373291 30.09259033 C2.11685497 33.57146898 2.107732 37.05037532 2.09765625 40.52929688 C2.07621918 47.35293474 2.04209205 54.17645916 2 61 C1.67 61 1.34 61 1 61 C0.9845388 60.04826401 0.9845388 60.04826401 0.96876526 59.07730103 C0.86083865 52.49153038 0.74622965 45.90590041 0.62768555 39.3203125 C0.58429221 36.86038141 0.54262044 34.40041935 0.50268555 31.94042969 C0.44508943 28.41071216 0.38136443 24.88115124 0.31640625 21.3515625 C0.29969376 20.24632233 0.28298126 19.14108215 0.26576233 18.00234985 C0.24581711 16.98144257 0.22587189 15.96053528 0.20532227 14.90869141 C0.18977798 14.00712311 0.1742337 13.10555481 0.15821838 12.17666626 C0.13564908 9.95363699 0.13564908 9.95363699 -1 8 C-0.83219837 5.30434798 -0.38844355 2.67594446 0 0 Z " fill="#211818" transform="translate(348,363)"/>
<path d="M0 0 C0.33 0 0.66 0 1 0 C1.18451025 16.8929385 1.18451025 16.8929385 0 24 C-1.32 23.67 -2.64 23.34 -4 23 C-5.45606519 18.47907032 -4.27032841 15.48351204 -3 11 C-2.34 11.33 -1.68 11.66 -1 12 C-0.67 8.04 -0.34 4.08 0 0 Z " fill="#E3B01D" transform="translate(518,367)"/>
<path d="M0 0 C1.15941038 3.47823115 0.70820884 5.45895578 0 9 C-2 5.25 -2 5.25 -2 3 C-2.89195068 3.03552979 -3.78390137 3.07105957 -4.70288086 3.10766602 C-8.05184064 3.23785142 -11.40091658 3.36198024 -14.75024414 3.48217773 C-16.19239075 3.53513747 -17.63445411 3.59042271 -19.07641602 3.64819336 C-26.80687122 3.95633975 -34.31837578 4.15868075 -42 3 C-42 2.67 -42 2.34 -42 2 C-40.7632251 1.97494385 -39.5264502 1.9498877 -38.25219727 1.92407227 C-33.68063287 1.83017747 -29.10922682 1.72991371 -24.5378418 1.62768555 C-22.55610854 1.58426856 -20.57433622 1.54259863 -18.5925293 1.50268555 C-15.7503683 1.44514617 -12.90840517 1.38140555 -10.06640625 1.31640625 C-8.72891075 1.29133751 -8.72891075 1.29133751 -7.36439514 1.26576233 C-3.36051605 1.563413 -3.36051605 1.563413 0 0 Z " fill="#E6A614" transform="translate(228,166)"/>
<path d="M0 0 C0.33 0 0.66 0 1 0 C1.33 7.59 1.66 15.18 2 23 C1.01 23.33 0.02 23.66 -1 24 C-1.22644569 20.75099666 -1.42797517 17.50090961 -1.625 14.25 C-1.68945312 13.32960938 -1.75390625 12.40921875 -1.8203125 11.4609375 C-1.871875 10.57148438 -1.9234375 9.68203125 -1.9765625 8.765625 C-2.02893066 7.94868164 -2.08129883 7.13173828 -2.13525391 6.29003906 C-1.98414765 3.73159732 -1.28926961 2.19131832 0 0 Z " fill="#E3AA19" transform="translate(738,369)"/>
<path d="M0 0 C0.33 0 0.66 0 1 0 C4.62870159 17.67198178 4.62870159 17.67198178 3 27 C-1.71426867 19.92859699 -0.17308727 8.34665284 0 0 Z " fill="#1F1710" transform="translate(710,228)"/>
<path d="M0 0 C1.66611905 -0.042721 3.33382885 -0.04063832 5 0 C6 1 6 1 6.11352539 3.68383789 C6.10828857 4.85164795 6.10305176 6.01945801 6.09765625 7.22265625 C6.09443359 8.48271484 6.09121094 9.74277344 6.08789062 11.04101562 C6.07953403 12.38151109 6.07106907 13.72200588 6.0625 15.0625 C6.0574866 16.40689942 6.05292342 17.7513006 6.04882812 19.09570312 C6.03699488 22.39717941 6.02050971 25.69856803 6 29 C5.01 28.67 4.02 28.34 3 28 C3.66 27.67 4.32 27.34 5 27 C4.67 18.75 4.34 10.5 4 2 C2.68 1.34 1.36 0.68 0 0 Z " fill="#E8A40E" transform="translate(641,167)"/>
<path d="M0 0 C0.66 0.33 1.32 0.66 2 1 C3.74451341 6.52429247 4.20612487 11.22850374 4 17 C3.67 17 3.34 17 3 17 C2.34 14.03 1.68 11.06 1 8 C0.34 9.65 -0.32 11.3 -1 13 C-1.33 13 -1.66 13 -2 13 C-1.85851011 11.3954444 -1.71164314 9.79136233 -1.5625 8.1875 C-1.48128906 7.29417969 -1.40007813 6.40085938 -1.31640625 5.48046875 C-1 3 -1 3 0 0 Z " fill="#100C09" transform="translate(703,197)"/>
<path d="M0 0 C0.33 0 0.66 0 1 0 C1 6.93 1 13.86 1 21 C-0.65 20.67 -2.3 20.34 -4 20 C-4.33 19.34 -4.66 18.68 -5 18 C-3.68 18.33 -2.36 18.66 -1 19 C-1.01160156 18.21496094 -1.02320313 17.42992187 -1.03515625 16.62109375 C-1.08375507 10.96280225 -1.01294749 5.57121122 0 0 Z " fill="#E4C932" transform="translate(648,177)"/>
<path d="M0 0 C0.66 0.99 1.32 1.98 2 3 C-0.05615219 5.40863543 -1.18873486 6.66177787 -4 8 C-8.40626265 8.14635273 -12.64615614 7.65243061 -17 7 C-17 6.67 -17 6.34 -17 6 C-15.78763672 5.85304688 -15.78763672 5.85304688 -14.55078125 5.703125 C-6.46310609 4.69576857 -6.46310609 4.69576857 0 0 Z " fill="#F2D12E" transform="translate(834,292)"/>
<path d="M0 0 C-2.90600261 1.25664978 -4.79604584 2 -8 2 C-8.06058594 2.62390625 -8.12117187 3.2478125 -8.18359375 3.890625 C-9 6 -9 6 -11.28515625 7.046875 C-12.20167969 7.27890625 -13.11820313 7.5109375 -14.0625 7.75 C-15.44115234 8.11351562 -15.44115234 8.11351562 -16.84765625 8.484375 C-17.55792969 8.65453125 -18.26820313 8.8246875 -19 9 C-14.59836061 3.86475404 -7.06902051 -2.64476056 0 0 Z " fill="#EED134" transform="translate(648,356)"/>
<path d="M0 0 C0.99 0.33 1.98 0.66 3 1 C3.66 5.29 4.32 9.58 5 14 C4.34 14 3.68 14 3 14 C-0.44419134 4.58997722 -0.44419134 4.58997722 0 0 Z " fill="#211611" transform="translate(720,295)"/>
<path d="M0 0 C-0.9075 0.391875 -1.815 0.78375 -2.75 1.1875 C-6.16713334 3.09320898 -7.66035739 4.93426141 -10 8 C-10.99 8.33 -11.98 8.66 -13 9 C-12.64463519 6.18771639 -12.19649652 5.17418516 -10.0390625 3.26171875 C-9.24242187 2.74222656 -8.44578125 2.22273438 -7.625 1.6875 C-6.83351562 1.15511719 -6.04203125 0.62273437 -5.2265625 0.07421875 C-3 -1 -3 -1 0 0 Z " fill="#7F3B25" transform="translate(141,120)"/>
<path d="M0 0 C2.45823172 3.68734758 3.01242616 6.69699971 4 11 C4.99 11 5.98 11 7 11 C7 12.98 7 14.96 7 17 C2.69958984 13.13086307 0.21853341 7.67703433 -0.25 1.9375 C-0.1675 1.298125 -0.085 0.65875 0 0 Z " fill="#F4DD3A" transform="translate(615,496)"/>
<path d="M0 0 C1.32 0.66 2.64 1.32 4 2 C3.236875 2.515625 2.47375 3.03125 1.6875 3.5625 C-1.61575607 6.55847644 -2.48625726 8.85712514 -4 13 C-5 10 -5 10 -4.00390625 7.51953125 C-3.52824219 6.62621094 -3.05257812 5.73289062 -2.5625 4.8125 C-2.08941406 3.91144531 -1.61632812 3.01039063 -1.12890625 2.08203125 C-0.75636719 1.39496094 -0.38382813 0.70789063 0 0 Z " fill="#E8AB11" transform="translate(623,373)"/>
<path d="M0 0 C0.99 0.33 1.98 0.66 3 1 C3.33 4.3 3.66 7.6 4 11 C3.34 11 2.68 11 2 11 C1.67 12.32 1.34 13.64 1 15 C-0.03590199 9.94997778 -0.10251672 5.12583611 0 0 Z " fill="#E3AD1E" transform="translate(388,167)"/>
<path d="M0 0 C1.9375 0.6875 1.9375 0.6875 4 2 C5.07366225 4.91422611 5.31375694 6.315664 4.0078125 9.1640625 C3.67523438 9.76992188 3.34265625 10.37578125 3 11 C2.49632243 9.54293274 1.99717444 8.08429904 1.5 6.625 C1.2215625 5.81289063 0.943125 5.00078125 0.65625 4.1640625 C0 2 0 2 0 0 Z " fill="#ECC829" transform="translate(349,363)"/>
<path d="M0 0 C0.33 0 0.66 0 1 0 C1.309375 1.11375 1.61875 2.2275 1.9375 3.375 C2.82326483 6.7945155 2.82326483 6.7945155 4 9 C3.71887936 11.00800456 3.38932033 13.01014051 3 15 C1.5393715 12.35261084 1 11.10551666 1 8 C0.01 7.67 -0.98 7.34 -2 7 C-1.34 6.67 -0.68 6.34 0 6 C0 4.02 0 2.04 0 0 Z " fill="#E3A811" transform="translate(237,220)"/>
<path d="M0 0 C0.99 0 1.98 0 3 0 C3 3.3 3 6.6 3 10 C2.01 9.67 1.02 9.34 0 9 C0 6.03 0 3.06 0 0 Z " fill="#1F160F" transform="translate(970,166)"/>
<path d="M0 0 C0.66 0.33 1.32 0.66 2 1 C0 4 0 4 -2.125 4.6875 C-2.74375 4.790625 -3.3625 4.89375 -4 5 C-4 4.34 -4 3.68 -4 3 C-7.63 3 -11.26 3 -15 3 C-15 2.67 -15 2.34 -15 2 C-14.16855469 1.93941406 -13.33710937 1.87882812 -12.48046875 1.81640625 C-10.85044922 1.69072266 -10.85044922 1.69072266 -9.1875 1.5625 C-8.10855469 1.48128906 -7.02960937 1.40007812 -5.91796875 1.31640625 C-2.94010095 1.09787539 -2.94010095 1.09787539 0 0 Z " fill="#201716" transform="translate(678,499)"/>
<path d="M0 0 C0.99 0 1.98 0 3 0 C3 4.29 3 8.58 3 13 C-0.46069717 7.80895424 -1.17386794 6.22150009 0 0 Z " fill="#E2A712" transform="translate(742,253)"/>
<path d="M0 0 C1.98 0 3.96 0 6 0 C3.25 4.875 3.25 4.875 1 6 C1 5.34 1 4.68 1 4 C0.34 4 -0.32 4 -1 4 C-0.67 2.68 -0.34 1.36 0 0 Z " fill="#E9B921" transform="translate(653,382)"/>
<path d="M0 0 C0.33 0 0.66 0 1 0 C1.33 5.28 1.66 10.56 2 16 C1.01 16 0.02 16 -1 16 C-0.67 10.72 -0.34 5.44 0 0 Z " fill="#E7A90E" transform="translate(389,182)"/>
<path d="M0 0 C2.29013653 3.4352048 2.17842973 4.985331 2 9 C2.66 9 3.32 9 4 9 C3.67 10.98 3.34 12.96 3 15 C1.08697693 11.73386305 0.64325339 9.00554752 0.375 5.25 C0.30023438 4.26515625 0.22546875 3.2803125 0.1484375 2.265625 C0.09945312 1.51796875 0.05046875 0.7703125 0 0 Z " fill="#E6A50D" transform="translate(215,238)"/>
<path d="M0 0 C0.66 0 1.32 0 2 0 C2.33 3.63 2.66 7.26 3 11 C-0.317124 6.577168 -0.30466674 5.28089024 0 0 Z " fill="#110B06" transform="translate(204,197)"/>
<path d="M0 0 C-0.93972656 0.41572266 -0.93972656 0.41572266 -1.8984375 0.83984375 C-2.71570313 1.20207031 -3.53296875 1.56429687 -4.375 1.9375 C-5.18710937 2.29714844 -5.99921875 2.65679687 -6.8359375 3.02734375 C-8.23683785 3.6569903 -9.62625284 4.31312642 -11 5 C-11.33 3.68 -11.66 2.36 -12 1 C-3.96428571 -1.27678571 -3.96428571 -1.27678571 0 0 Z " fill="#EFD131" transform="translate(402,193)"/>
<path d="M0 0 C0.66 0.99 1.32 1.98 2 3 C-2.625 5.125 -2.625 5.125 -6 4 C-6.33 3.34 -6.66 2.68 -7 2 C-4.69 1.34 -2.38 0.68 0 0 Z " fill="#1E1710" transform="translate(696,528)"/>
<path d="M0 0 C3 1.8125 3 1.8125 6 4 C6 4.99 6 5.98 6 7 C4.68 7 3.36 7 2 7 C1.34 4.69 0.68 2.38 0 0 Z " fill="#E9B91E" transform="translate(370,311)"/>
<path d="M0 0 C0 0.66 0 1.32 0 2 C0.66 2.33 1.32 2.66 2 3 C0.35 4.32 -1.3 5.64 -3 7 C-3.66 6.67 -4.32 6.34 -5 6 C-4.01 5.34 -3.02 4.68 -2 4 C-2.99 3.01 -3.98 2.02 -5 1 C-3 0 -3 0 0 0 Z " fill="#EFCB2B" transform="translate(360,253)"/>
<path d="M0 0 C0.91447302 3.08634644 1.32154416 5.78455841 1 9 C0.01 10.32 -0.98 11.64 -2 13 C-2 9.04 -2 5.08 -2 1 C-1.34 0.67 -0.68 0.34 0 0 Z " fill="#E4A713" transform="translate(676,211)"/>
<path d="M0 0 C0.66 0.33 1.32 0.66 2 1 C1.67 3.97 1.34 6.94 1 10 C0.34 9.67 -0.32 9.34 -1 9 C-1.09765625 2.84765625 -1.09765625 2.84765625 -1 1 C-0.67 0.67 -0.34 0.34 0 0 Z " fill="#271E10" transform="translate(680,174)"/>
<path d="M0 0 C0 3.62453269 -0.92469613 5.07920195 -3 8 C-3.99 8.33 -4.98 8.66 -6 9 C-4.68775452 5.06326356 -3.08089673 2.77280706 0 0 Z " fill="#F3D636" transform="translate(628,365)"/>
<path d="M0 0 C0.99 0.99 1.98 1.98 3 3 C2.34 4.98 1.68 6.96 1 9 C0.01 9 -0.98 9 -2 9 C-1.34 6.03 -0.68 3.06 0 0 Z " fill="#281D14" transform="translate(416,306)"/>
<path d="M0 0 C2.83022097 3.99560608 1.76210446 7.42737323 1 12 C0.67 12 0.34 12 0 12 C-0.19477739 10.37585622 -0.38059458 8.75063577 -0.5625 7.125 C-0.66691406 6.22007812 -0.77132812 5.31515625 -0.87890625 4.3828125 C-1 2 -1 2 0 0 Z " fill="#221913" transform="translate(699,216)"/>
<path d="M0 0 C0.33 0 0.66 0 1 0 C1.05391993 1.79133978 1.09275571 3.58313899 1.125 5.375 C1.14820313 6.37273437 1.17140625 7.37046875 1.1953125 8.3984375 C1 11 1 11 -1 13 C-2.07310858 9.72814447 -1.89263102 7.57052408 -1.0625 4.25 C-0.86785156 3.45078125 -0.67320312 2.6515625 -0.47265625 1.828125 C-0.31667969 1.22484375 -0.16070313 0.6215625 0 0 Z " fill="#23180F" transform="translate(867,290)"/>
<path d="M0 0 C-0.66 1.65 -1.32 3.3 -2 5 C-3.32 4.67 -4.64 4.34 -6 4 C-6.33 2.68 -6.66 1.36 -7 0 C-2.25 -1.125 -2.25 -1.125 0 0 Z " fill="#231A15" transform="translate(362,260)"/>
<path d="M0 0 C0.33 0 0.66 0 1 0 C1 2.97 1 5.94 1 9 C-0.98 7.68 -2.96 6.36 -5 5 C-3.68 4.67 -2.36 4.34 -1 4 C-0.67 2.68 -0.34 1.36 0 0 Z " fill="#E5A510" transform="translate(969,189)"/>
<path d="M0 0 C0.77321882 2.98241547 1.41196203 5.97580475 2 9 C1.01 9 0.02 9 -1 9 C-1.33 6.36 -1.66 3.72 -2 1 C-1.34 0.67 -0.68 0.34 0 0 Z " fill="#231912" transform="translate(233,179)"/>
<path d="M0 0 C1.32 0.33 2.64 0.66 4 1 C4 2.98 4 4.96 4 7 C2.68 6.34 1.36 5.68 0 5 C0 3.35 0 1.7 0 0 Z " fill="#ECC022" transform="translate(180,166)"/>
<path d="M0 0 C1.125 1.6875 1.125 1.6875 2 4 C1.125 6.75 1.125 6.75 0 9 C-0.99 8.67 -1.98 8.34 -3 8 C-2.09456151 5.28368454 -1.07525194 2.65228812 0 0 Z " fill="#DBA413" transform="translate(181,194)"/>
</svg>
